<mxfile host="65bd71144e">
    <diagram id="Q0Bqb7_0KAcd7Om0uFCT" name="Page-1">
        <mxGraphModel dx="1965" dy="836" grid="1" gridSize="10" guides="1" tooltips="1" connect="1" arrows="1" fold="1" page="1" pageScale="1" pageWidth="827" pageHeight="1169" math="0" shadow="0">
            <root>
                <mxCell id="0"/>
                <mxCell id="1" parent="0"/>
                <mxCell id="170" value="" style="edgeStyle=none;html=1;" parent="1" source="160" edge="1">
                    <mxGeometry relative="1" as="geometry">
                        <mxPoint x="349.2977272727271" y="55" as="targetPoint"/>
                    </mxGeometry>
                </mxCell>
                <mxCell id="160" value="ElsterBot" style="text;strokeColor=none;fillColor=none;html=1;fontSize=24;fontStyle=1;verticalAlign=middle;align=center;" parent="1" vertex="1">
                    <mxGeometry x="327" y="10" width="100" height="40" as="geometry"/>
                </mxCell>
                <mxCell id="162" value="" style="sketch=0;outlineConnect=0;fontColor=#232F3E;gradientColor=none;fillColor=#BF0816;strokeColor=none;dashed=0;verticalLabelPosition=bottom;verticalAlign=top;align=center;html=1;fontSize=12;fontStyle=0;aspect=fixed;pointerEvents=1;shape=mxgraph.aws4.waf_bot;" parent="1" vertex="1">
                    <mxGeometry x="660" y="100" width="34" height="34" as="geometry"/>
                </mxCell>
                <mxCell id="165" value="" style="html=1;verticalLabelPosition=bottom;align=center;labelBackgroundColor=#ffffff;verticalAlign=top;strokeWidth=2;strokeColor=#0080F0;shadow=0;dashed=0;shape=mxgraph.ios7.icons.user;" parent="1" vertex="1">
                    <mxGeometry x="397" y="260" width="30" height="30" as="geometry"/>
                </mxCell>
                <mxCell id="166" value="" style="html=1;verticalLabelPosition=bottom;align=center;labelBackgroundColor=#ffffff;verticalAlign=top;strokeWidth=2;strokeColor=#0080F0;shadow=0;dashed=0;shape=mxgraph.ios7.icons.message;" parent="1" vertex="1">
                    <mxGeometry x="440" y="60" width="200" height="150" as="geometry"/>
                </mxCell>
                <mxCell id="167" value="" style="shape=callout;whiteSpace=wrap;html=1;perimeter=calloutPerimeter;" parent="1" vertex="1">
                    <mxGeometry x="440" y="241" width="200" height="94" as="geometry"/>
                </mxCell>
                <mxCell id="168" value="&lt;div style=&quot;text-align: justify;&quot;&gt;please&amp;nbsp; answer following questions with &quot;yes&quot; or &quot;no&quot;, an individual tax template will be generated according to your specific financial situation.&lt;br&gt;1. do you want to claim a child on your tax return filing?&lt;/div&gt;" style="text;html=1;strokeColor=none;fillColor=none;align=center;verticalAlign=middle;whiteSpace=wrap;rounded=0;" parent="1" vertex="1">
                    <mxGeometry x="450" y="106" width="180" height="26" as="geometry"/>
                </mxCell>
                <mxCell id="169" value="&lt;div style=&quot;text-align: start;&quot;&gt;&lt;font color=&quot;#111111&quot;&gt;&lt;span style=&quot;background-color: rgb(255, 255, 255);&quot;&gt;yes&lt;/span&gt;&lt;/font&gt;&lt;/div&gt;" style="text;html=1;strokeColor=none;fillColor=none;align=center;verticalAlign=middle;whiteSpace=wrap;rounded=0;" parent="1" vertex="1">
                    <mxGeometry x="450" y="259" width="170" height="30" as="geometry"/>
                </mxCell>
                <mxCell id="172" value="" style="shape=image;verticalLabelPosition=bottom;labelBackgroundColor=default;verticalAlign=top;aspect=fixed;imageAspect=0;image=data:image/png,iVBORw0KGgoAAAANSUhEUgAABD8AAANhCAYAAADg6hBHAAAAAXNSR0IArs4c6QAAAARnQU1BAACxjwv8YQUAAAAJcEhZcwAAFiUAABYlAUlSJPAAAOfhSURBVHhe7P0PcB1VnueJ9kx1T8/0dL/eeTPvbe+fFxs1O7HxYvbF29nQ6+rWhlkTENTWH1ds4GK6XJ6HG7a8D1ozsCqqEEUJjxvbTKEGt8rV2JoyAoNtaiT+ybhwyYtsUyos5D/ILlkGW8Z/5H8qhAWmZAyWjfm9PHkzb57MezJvZt680r2pz4f4BNa9eTPzZp7MPOd7T578HQEAAAAAAAAAyDGEHwAAAAAAAACQawg/AAAAAAAAACDXEH4AAAAAAAAAQK4h/AAAAAAAAACAXEP4AQAAAAAAAAC5hvBjDjN15ZTsPbNcXjj0P8lT+/5z6XjzH8oTA3+/6NqB35Un9/5f5bkD/1J6j/5rOfr+Zvn02gfOpwEAAAAAAADqg9yHH+9/fEA69/7ffI36LN184P8pH0+fd5ZWinpPTWP6rKtaP7WeM8Hncl2Ovr9RNg79C2vZXyhZl3KqQOTZt74ob449IJenx525+uk7tsT42ZkwbH/UQzkI9wuyfs9/ZgdUzw//mbV9/1JOffBzufrZJWfuM8uhZ++T++5rk74J54U8MtEnbfdZ3/PZQ84LDlPn5J3RD+Sa82c9cu3Cu/LOmSnnLwAAAACAuQHhR4XWU/hx8dNjVuP5S9Yyk4ceJlUQ8rOD/287TFGhigvhRymVhR9m1735D+Q/HfwfSrZ/ZhzaIPfdd5+0vfae80KBWQs/rk3Ju/2b5SePLpeW76t1ULZI68OrZcNrh+SDLBMJY/hxTfasLyx382HnpZrgPel71N0eYW6Qwjc5JVsfVn+vlr4L9gsAAAAAAHMCwo8KrZfw4+xHO2XD/v/auPxKfeFQo1y7ftlZEuGHiWqEH7rPvvXP5dSHrzpLy4gaCj+unXtdOpY5DfmWVmn7uw2y+bnNsnn9aln+oPv6atl68hPnExUS0vPj1Jbl9nJer6leL274sUp+oraJ0d1yzp52Svb8xxa5b3m3vHPFfgEy4treJ+W+R/usvQEAAAAAtQjhR4XWQ/gxPrVbnt73XxiXXalr3/w9OXj+b50lFSD8KKXa4YdSjdkycOr+7HqB1Er4MdEnq+2eHq3S8dq7MlXy9a7JB29tllVqmu+vlr7fOC9XQthtLzWJG364vTtgNrCPC8IPAAAAgJqF8KNCaz38UONCvDTyPxuXm4Ubh/5be+BUHcKPUmYi/FCqW2H2nXnYWWqF1ET48UnxVpPVgfUI8om1vq0qsMiiAUr4AUm4ckg2t2ZU9gAAAACgKhB+VGithx+H31svHYP/yLjcLHz9+N3OkjwIP0qZqfBD+dM9f2wPiFoxZcMP1ePiJfnJqhZ7OmXL8tXS/ZZhQFB7Xstl65j172sfyFBXW3HcjtW7Ip4g9NHrslrNe9VW57aNKD6RPevUPFule9R5SWEvu/DatQtD8tLfrfLGDHlwuazu2iPngnfLhIQfxuDHmfYnb0yJTL0rrz+7WlpbnPmrW3TWb5V3wr7iB+/I1vVt3vQPrpKfvDiUcPySJOFHyLRptpHFtY9OyZ6fPymrl3tloPgdgj10UiyjsL3D3aB/iSvvyaHX1JgwrdLiTmNt/9XPvi6nQvbvk3utDf3JKd8+a1m2WjYMnHPKsCrj3bJ6mfP9vt8iy9u7ZeiCt4PO9Xpl2e/M3hoGAAAAANEQflRoLYcf6vaHuL0+1Dq8NvpvZO+Zvy76xslmeXnkRmf7lQ6S+uTefyrnf9vvLM2D8KOUmQw/lGq/6eOwpCIy/FglG6wGo2oMtq13x5V4Utqc8TdKemk489pwwGp8r7amUY1S9bkNP5GtR5xpDEy98RP7c8u3+HsXheFOv6pXW76z7I6Xt9q3z7T8zZPFsTCefNRp1K7uk/f0xnqK8GP5c1tlwzJr/g//RDY489+wZnlh/ss2yKFgA/w3zu08318uP9ngTP93ywsN9+WbS6cPJavwI+E2sninq9UuA6v+boO89Noe2fPaS9706/eI7yukWMbU2JAMHQi6WzavUt9hlWzVErGpfqs8qgFw2635/vx1Geq39oe7/VdtlVOG/bvq5T7ZrPZZcV20MrzjlLW/re/XYtg/3/+J7P6oMKvCOr4kP1GvP7xBXi+u5zvyHuOqAAAAANQMhB+W6rGvakBQNW1SP/zkSOQYC7MZfnz4yTvy9P7/yrhMzy9I79F/XfaxqerWlr1nltvbSj3lRX32lbe/bPzuYx9u84UoUaqgRI1VUbpeni8c+p+MnzU58psOY6Nfbd9aLwcqTDo++aJvvmq8lqFzj9r76Jm3/htrunhP6lG9P9R+qIjI8MOydYMMBZ+Y+smQbFDd/79vNa71zeHMq3WZ1Zhc/Qs5F7Nngz3AqPW5DXEPj7Gtslytmx5aOMtWvQ42vFWywjK0wVontQw9DUgRfqh5tG1zewx4vNfbVnhP347X35VuNYCrYRt+cqBw+07r8+86r5Qju/Aj0TZSfDIlUyX7ckpeb1fzCjxRJu0yArgBV5secCmuWOtiCBvsgMaa3veEHm2flQR1xTJsaQitjPvT2pob1Py47QUAAACgZiH8sCz3q30lzGb4cezCf5L/OPiPjct0VY++LRd8BLn4yajsOv6/2w31SomzjiogqZS8lAPV0+a5A//S+Pmgb479wPlUSsqEH8HXXd55Tr0fCAjchu/3n5Q9sXs0eMsq1yAu4jZq9Uaou+ywhunhzaXfJ034EQx8XC70FW7d0eZ17a0n7WWu7g+GAArncbRh8yvBDTTC9b5bmfAjyTaK4L3XCgGBb79lsQxrW9u9ZQy9UEIxlWN3n7V2yzuG+bjlzrh/jGWD8AMAAACg1iH8sMxr+KF6DJiWp7vvzApn6tmB8MMzbjlQvXA2Df13xnnovvL2/+J8IiWmRqNFoWEYGFdDo9DwDQk/AmFCObIMP0J7UjifMTaOk4Qff7dbTFGG9alCw1ibVyEgWiW/CHkyjXE5obiBRvijbn9x2F2z6PAj0TaKICr8SL2M69a6q1umkj7Rx1SO3X22fk/p+DQWhe3vjFFTQun+LL5G+AEAAABQsxB+WM7V8EOFDip8mE0IPzyTlIO3zv4H6zPRt8B0D/9pZeN+mBqNFuUa5lHhR9zGs0uWt72ELtvU6HYbx0nCj8C0HsHG8rXiE2yidZdj7tnhrW9IoGEkOvxItI0U9iCjL8mT7ctluT7oqaMp/Ei8DIf3XlNjeqixOEI+f21KTg1ulQ1/1ybLH9YGPXX0zbfMPosu44QfAAAAAPUI4YflXA0/VONZNaJnE8IPzyTlQI3nocb1MM3HteLvUwPhx7W9hdtDshjwNFGjO6RxnE34MSW7/64wn80D7uCYJt0BM6fknW0penMYyS78+ORIt6wqDti61Rvoc/ScvLtllT2/zMIPd3DYsN41v9ktHWoMlfvUALwvSd+gsy6HT8kHg4UyFGf/uhB+AAAAAOQPwg/LvIYfw+M/kbVv/p5xma7qaTBJx/zIEsIPzyTlYEa+Tw2EH+kedRu4XaHmwo/yt70kYzbCj3el2x4U9EnZY0gjom57SbQfFNffk1+odQ4dL8YNk1bJSycNN7GYlltmnxF+AAAAAOQPwg/LvIYfcXoHqN4ffcf+MvJJJdWE8MMzSTmIs2//08H/QT699oHziRSENFZnNPyQazL0lFreffKT/ujv8om1DPWUlPvaX/f3DkjT6A5pHGcVfrg9WpJvDxOzEH6433nDUOHvAIXtlE34ccruRdIqGw6EjZTrbN//8Atj8OAGMb75ltlnhB8AAAAA+YPwwzKv4UecZRf8grx06AaZunLa+eTMQfjhmaQcDJ5utT4TPeZHdQc8nanww+Kj3fITdcuD1QDu6D8n1ww53dS7Wwu3RZgGw6zB8KP4qFtrfbeeNDXqr8nUR3EfizML4ceVPfKk+k6rtsqpwP4ohlCWFYcfo92Fx/5a2y58a7hPxzH0DHFvlwnOt8w+Sx5+RKwDAAAAQI65fPUz+dvBd+XGDf3yB6u2yO8sf8n2H1n/Vq/97Zvv2tPUAoQflnkNPxSvH7/buEyTHW/+Q+k7drtcnh53Pl19CD8845aDeE97+YIdkFRESGN1xsMPRXFMB8sHl8vq9c7YFxt+Im3LnIE2W0KChDSN7pDGcWbhh0I1zFvU/O6Tlr95sjiWhxqws1W9Hjq/ILMQfsg1eee51sK6P/qkvPTaHtnz2kvWui+Xlvta5cmnCmOvVBR+uAHRfatk8xvOGB4B3/lN4TaX93YUBkO9b/lPZMPPX5eh/q2yeX2btHz/Pln91JP2ILhx9q9L8vBD5NzPC+Oc3PcfOmRr/5C8/vPNsvuM8yYAAABAFfhN72b5nXu2ypvO30V+e0yeeGy9fPGeDvmd/2O93PTCSeeNbHly6JT8s7afFwOPMP+pNY2adrYh/KjAOI3l2Q4/Ji9bFfX9/7VxuWH+dPCPZNfx/31GQpBaCj/SOpPl4L2pPdL16//R+HndJ/f+Uzn/237nUymppfBDcW1K3u3fLD951GpgO7/mqwEuWx/9iWx+7ZB8YHpmqaJWww/F1DnZ86IW4CjtcGer7DlXwz0/FNc/kCFr3Vc96Kz391tkefsGeV0FUBf67LFaKgo/3O0aoTevT+RU/wZZXdyOhXLx0gF1q9Q7stkqL77lltlnacIPuT4l77y4uhBcqfcfXCVbq1PPAAAAgHpmeKv8zj0dsmrY+dvAm093lIQaF994Qf7knqfliRPOCxbm8OOCPLfK+vzyrbLt1AU5eWRI3jxlj6KfKfe/NlIScpRTfWY2IfyowHoIPxT7zjws6978B8ZlR9kx+AeixgOpZghC+OFpKgeffT5tB1hq8Fp1a1Lc/ZjFNgMAAAAAgIxJGX58+tZW+eL/8aw8pz0FwBh+nHpdbioz/0pZ8csjvlDjdx9+Wb794j55Yu8JeXX0N7J5+Iz8220H5Q8fecU3nVJ9drYg/KjAegk/1GCmKsQoN0ZEmKonyBsnvyufXpt05pgdhB/Z++xb/1wufjLqLBkAAAAAAGqGlOGHCWP4Yc9/szwX0tm2Un41dqEk0Nh18n3nXT/vfnBJ/vhH1voEplfzmA0IPyqwXsIPhXqc7ZbDN1vLSxeAKJ9567+RUx++6swxGwg/slUFVUff3+wsFQAAAAAAaoo6Dz++/txASZjxb17aJxMfX5F/v+sd+/3bX94vn14rDHL677b9umR6Nc1sQPhRgfUUfijULRRqLI80t8C4qs+qeah5ZQHhR3Z27v1n8u7kC84SAQAAAACg5kgbfhhCDV/4ceWkPNfRJY33qc9qPq3dZnL9Q3mz+wX52vcL7/3J95+W7zw3Ir+56rxfhhMfflwSZCh/7+Ee+ceBW1zefv+39mdWv3nM97rrbED4UYH1Fn64qN4b6tYI07rE8wt2L5IsboMh/MhGNQiqGgwVAAAAAABqmGqFH9evyMXfTsnFgZet156VzmPWv9XfnziPmb3+njz3qDXf+zbL47tG5MCRk7Jz1zZZeF+H/Mmjb8jJ64XJonj6wJgxyAiq9+xYYOgpopwNCD8qsF7DD4XqubHn9L+vaNv0HL7Jvp2mEgg/KvPpff+l7D/7SGY9cQAAAAAAoIo44Ud5E4YfLobpFBf7u+RP1OvBZ1m8vV3+R2t5rfvKPxHmgb7yT3hp7h2W659/bk//g77DxmmUswHhh+XGoX8hZz/aaU+bxA8/OWIPJhpFrYYfLiq82HP6oZTBwBfkzbEHnDmlo5bCj9kuB8n9gux8939zlpAtJ06cQMQMBAAAAPDhhB/feWFEdr5l9onVWYcfU7Kt3Zpn+1656LzicURWWevzJxuPOX+H8//besAYZLjqPT7u+nn0tLMB4YdlnF/u01Lr4YdL2p4gqufB5OX0z1GqpfBjtstBGtUAp+9eeN5ZSnaYGnGImFwAAAAAH074kfltLy7G8OOkPN7i9igJUR8bJIRyPT9+duiMPd2jb4wa39edDQg/LAk/PFRPkDfHfmA3qk3rWuoXZPB0q/Pp5BB+eD6595/K8ckX7XV1ffu9J+Wne/7YOL3rcwf++8zX29SIQ8TkAgAAAPiYzfDjp0OFcUBMumODRLDhYPSYH996Ya/89evvyA1P9xvf150NCD8sCT9KufjpMen+9f/HuL5Bu4f/VK5dv+x8MhmEH55h5UDd2hL9iOLsb38xNeIQMbkAAAAAPmYl/HBue1n1hvzGeSUNJy+an/bi+k8e3So3bviV/O7DLxvf150NCD8sCT/MqF4galBT0zrrPr3/v5IPP3nH+VQyCD88w8rB1JVTsmnovzN+xjXr219MjThETC4AAACAj1kJP9wBT5+2lpvuR2uXsKe3KN86XxhR5Im9J4zvu6p5zAaEH5aEH+Fc/GS07GNx1+/5J3Luo9edTySD8MMzqhwcfm+9dAz+I+PnXJ878C/toCQLTI04REwuAAAAgI9ZCj/Uo25fekzNt0MWPv2GbHMGV93Wu0O+99h6eTxifXTeOD1pDDT+nuX0Z4WHQOwOmcZVzWM2IPywJPyI5hdHbjWut6sKL1SIkQbCD8+ocqCeJrP17a8aP+f5BWtb/WXZJ8/EwdSIQ8TkAgAAAPiYrfBDcX1K3tm1Vb7Tul7+xFoHtR5f/MHT8p2n35ADpY+BCWVV/xFjqPG1zQPy3KEz8q86dhjfV6rPzhaEH5aEH9Go8MG03q6EH+XJohy8d2mv/XQd02dd1e0vR9/f7HwiPaZGHCImFwAAACCPlHvyi0n1mdmE8MMyj+HHp9c+kKFzbTJ15bTzSnpeeft/Ma63q3pKiWqYp4HwwzNOOdhzepmsffP3jJ93zeL2F1MjDhGTCwAAAJBXnj4wJv/3v3nVGHToqmnUtLMN4YdlHsMPd7nr3vwH8tKhG+TUh6+muh3i/G9/JU/t+8+N6+367FtflI8+Pe58IhmEH55xyoEahPb54S8ZP+9Z+e0vpkYcIiYXAAAAIM9cuXZd1uw5Ljc98yv5w0deKQYef2T9+2brNfWemqYWIPyw3Dj0L+TsRzvtaZP64SdHIhuZcRq9qufE8ckXjfOPa3A9TMtdv+c/k21H/lcZ+3CbfPb5tDNlOO9N7Sn7lBHlSyP/c+qGdi2FH7NdDuKGYKc++Ln8dM8fG+fhqrbp0fc3Op9IjqkRh4jJBQAAAIDagPCjQsv1FojT6M3C4HqUW27Hm//Qauz/t9J79F/L3jN/LSc/eMXeVur/b479QJ4f/jO714jps7rqFoyD5//WWWpyain8qMQsykHc8EOx893/zfrMF0rmoauCq7S3v5gacYiYXAAAAACoDQg/KjSLRm8WBtdjtpabFMIPzyThhwo14vTKee3Y/zdVrxxTIw4RkwsAAAAAtQHhR4Vm0ejNwuB6zMRyOwb/kRx+b72zxHQQfngmCT8UaturfWCal2vafWRqxCFicgEAAACgNiD8qNAsGr1ZGFyPai937cDv2rdepB3rw4XwwzNp+KG2/da3v2qcl+6zb/1zufjJqPOpeJgacYiYXAAAAACoDQg/KjSLRm8WBtejmstVY4G8fvzuioMPBeGHZ9LwQ6EeMfz0vv/SOD9dFZIk2V+mRhwiJhcAAAAAagPCjwrNotGbhcH1+PTaB7Ll8M12Dw3T9GndsP//ISc+6HGWUjmEH55pwg/FntPL7IFnTfN0VYHVr8fXOJ8oj6kRh4jJBQAAAIDagPCjQms1/HBRtzuo21Oe3vdfWNNFPx0k3C/Yt04MnfubWI/ITQLhh2fa8OPqZ5fk+eEvGeepq3qIqJ4icTA14hAxuQAAAABQG+Q+/AAP1QAf+U2H/Xjb5w78S6ux/c/sR94GG8k/3fN/scOSnsM3ydC5R+XDT444c4C5gqkRh4jJBQAAAIDagPADAEq4cuUKImYgAAAAANQGhB8AAAAAAAAAkGsIPwAAAAAAAAAg1xB+AAAAAAAAAECuIfwAAAAAAAAAgFxD+AEAAAAAAAAAuYbwAwAAAAAAAAByDeEHAAAAAAAAAOQawg8AAAAAAAAAyDWEHwAAAAAAAACQawg/AAAAAAAAACDXEH4AAAAAAAAAQK4h/AAAAAAAAACAXEP4AQAAAAAAAAC5hvADAAAAAAAAAHIN4QcAAAAAAAAA5BrCDwAAAAAAAADINYQfAAAAAAAAAJBrCD8AAAAAAAAAINcQfgAAAAAAAABAriH8AAAAAAAAAIBcQ/gBAAAAAAAAALmG8AMAAAAAAAAAcg3hBwAAAAAAAADkGsIPAAAAAAAAAMg1v/PEwN8XRERERERERMS8Ss8PAAAAAAAAAMg1hB8AAAAAAAAAkGsIPwAAAAAAAAAg1xB+AAAAAAAAAECuIfwAAAAAAAAAgFxD+AEAAAAAAAAAuYbwAwAAAAAAAAByDeEHAAAAAAAAAOQawg8AAAAAAAAAyDWEHwAAAAAAAACQawg/AAAAAAAAACDXEH4AAAAAAAAAQK4h/AAAAAAAAACAXEP4AQAAAAAAAAC5piT82Lp1KyLOkkFM0yBiOoOYpkGsZQEAACA9hB+INWQQ0zSImM4gpmkQa1kAAABID+EHYg0ZxDQNIqYziGkaxFoWAAAA0kP4gVhDBjFNg4jpDGKaBrGWBQAAgPQQfiDWkEFM0yBiOoOYpkGsZQEAACA9hB+INWQQ0zSImM4gpmkQa1kAAABID+EHYg0ZxDQNIqYziGkaxFoWAAAA0kP4gVhDBjFNg4jpDGKaBrGWBQAAgPQQfiDWkEFM0yBiOoOYpkGsZQEAACA9hB+INWQQ0zSImM4gpmkQa1kAAABID+EHYg0ZxDQNIqYziGkaxFoWAAAA0kP4gVhDBjFNg4jpDGKaBrGWBQAAgPQQfiDWkEFM0yBiOoOYpkGsZQEAACA9hB+INWQQ0zSImM4gpmkQa1kAAABID+EHYg0ZxDQNIqYziGkaxFoWAAAA0kP4gVhDBjFNg4jpDGKaBrGWBQAAgPQQfiDWkEFM0yBiOoOYpkGsZQEAACA9hB+INWQQ0zSImM4gpmkQa1kAAABID+EHYg0ZxDQNIqYziGkaxFoWAAAA0kP4Uc+euWTtsaty4bDhPaxLg5imwerYf3RCLl91Nvzn1+Xyb35tnA7r1yCmaXBu+PYFdbBfktOG92pZAAAASM+cDj9Oq+wgFK9SNPSbK9bf1+Wj46XzmFUJP3JnENM0+fRtsdsiQa5flSsXz8mhX5k+k6GDp+XS59byrnwop48ckmOnx+UUx1XuDGKaJnfutMq2+rKXTssO0/u2b8r4ZWuazz+SUztN7+dPwg8AAIC5B+GHXJEPz56TcyUek1870715VtUKr8qFo6XzmFUJP3JnENM0+dQJP65dkoniMTghH7pdMa5bjZS9ps9FePSCdXS4oeUOOf7b69bhPlE8rnXfPO8c4xxLuTaIaZr8uUNO/VZ928tybtD0vuXguPWuxW9PRQQk+ZLwAwAAYO5B+FGHlZ+ihB+5M4hpmnzqhB9XL8jbgff2WOX8uvXW9Q+O+F4va4Lwo14bQpjMIKZp8uiOkx/Z3/fyuTeN7w+9p3o3inx0ovS9vEr4AQAAMPcg/CD8wBoyiGmafBoefmzdekw+vGa9N31BDpW8l42EH3PDIKZpcunOU/KRuq3r43PyZsn7QzKhso/PP5LjJe/lV8IPAACAuUddhx+9vb3G1+MaO/wwhQz2a9Zndx6ScxevyFVVsVR8fl2uTpnGKOiXQ2cvyVX1E7YJX6NvhzXtR3JF1c0crk9fknMj/dr8LN31On5cJi5dlevuOly/KpcmjssefVrXvaXTXr5wXIZ893kXGqJX3z8ke45PyKVpbaWvXpYLJ4bmTNfomTaIaZpK/MUvfiEDAwMVuXPnTuO8KzMq/HDe08IPu+FyZcIqt0Ny6qJXngu/XHtjHPjn47139cLbhb8Pn5NLn2oHmkPxfSXHTG4MYppmNnzjjTeMr2fp8bBbXw5MiD2q1YfH/K8nKPdX3rPK99Ap+cgt98UgRV33/NcyuW5dIy9dkOND+ny2lhw3143HTeH4vXQ65jVSaX2PC8WRjC3U9fHsITlin1QM1/8aP94BAAAgPXUZfvz85z+X8fFx+e1vf1tRAFJ5+HFd1ePk+pWPiuMUjH9wxe6iH/yF7dd2t+LrcnnimBw6MCRDI6fkwqdqyqvy4eibWkVph/OLlPXO1IScO3lKTp21Klf2S9Y6vL2jOM/COlhztWZz9eMLMn7WmvbkOZmYKnz++tRp/698e62Ko1rk9cvy4fnT1rSnrfW9XLilwGooemGJ09i0Znz9c6uieGG8OAZDYT2uy4e1Nv5JTgximqYSf/WrXzlzTs/Y2Jhx3pXplDlT+HGw0DiT3x4vvmYfI1c/kguqQFuNjQ8nrPJ5flyOH1DvJwg/frVHhqzj8fiHauGXZVwdm5b733SOM46ZXBnENM1Mu2/fPntdjh0LhA9Ze8K59eW8/9aXX9vdPqzyOapNm7DcX714wZ7+6uUP7Wvh+PnjMqTm7Vz3rnxgHQ+nrevTaeu9C5fkyrR/YNXirW3W58ft6cblw8v2K3LpzJ7idO7xe71w4ZWP1HGvjrPzH8oVNXkw3FEDGavX1TFpTXvKup6qadWs1SxKrv91cLwDAABAeuoy/Dh37pxcu3ZNLl26JB999FHqAKQQfpjx/fIbGn5YfHwu0MNihxy/qKpKVkOqWAlzuu0Huxw7g8ypX4+KrzkNPbV83y9Hpm7L7jqUDFK3Q459qNbhikwc9F6zxzz43KocBgaOLFZ+i5U1p2IXDFuUe8fNvxJiJgYxTVOJbvhhei+Op0+fnrnw41d75NDJC3ZDxV+W3S7rFtPW9L5fZJWFBlKs8MPR3AWeYyZvBjFNM5Pu379fPv/c7WIgMjQ0ZJwuG53r0OVx7Tr068ItL9c+lCPF19KUe8M1y9K+xhp7c2nuPC4fqWO85FpqWjfn2Das247jH9khhR7uHPlAvaKCndJj0h7g1XfM18fxDgAAAOmpq/Dj1VdftYOPTz/91G7EqdDjww8/tAOQ7du3Gz8TZSH8MD/t5dTb2q9jEeHHpdPaa7739OnNDa5iRW7Ka6QVBp6zGnr2L9h+S3qqOOtgHKTubTXYY6E7cuE1q4Kp6tjar+dFDxem9UIYp2JnHGPBec/YsMRKDWKaphIrDT9U8FHV8MOE6s5+yN/AKIQVemNEN6vwg2MmbwYxTTNTqh4fKvg4cuSIvS6jo6N2qL9nj97TIVsLobgWzDthu38w4RTl3hdQeBZ7flw4Jb8Oe1y10yPFdB0rHJfWtXTEfa30mukZPLYPyYVp+wVD+LJDzn2sZqQf8/VxvAMAAEB66ir8+M1vfiPT09OyY4fXEFKByMTEhHz88cfS19fnm76cld/2Engt9D2nUmVVhny/jDk9P7yAwr0vO4pg+BGyDsGKoHNfdxRepTGq8kZDrpoGMU1TicHwY+/evXajK64qaFTqr7322mu+ZaTTbUR5j7o9feyQDO013MNvaQ4rXDMKPzhmcmcQ0zQzpbqevfvuu/ZtnAp1bL711lsyNTVlnD4Tj35o945wrzmFHg2Ba0hm5V65R45fKNw2olBjfZx+W7/N03vSTDj6+pmPX/N73nW3dFrDMV8nxzsAAACkp27Cj5MnT9rrpyqMqrKov6cCENUb5OLFi77Xyzlz4YdV0Xpf1Yauy+XfHLHHE+jfe0TGP7aqhNet5Wv3KLuD0rljD5S6R/qdaSPXYee5wi01bmXNqdhd/fC4YZ4Fi+Mc0JCbNYOYpqnEYPihbmMJhhlJVPT3mwOKZDrlqlwXeceZDD84ZvJjENM0M6UafFhdy9zwwz2Otm3bVjJtdh4p3PqiBgsOO+YyK/eav/q1HDt7wRkPw7rsXZ4o3q5WCD+uyofHzcsaOrBf3ize2lb98KPWj3cAAABIT82HH6pi6N7qMjg4KJ988ok92KkegJw6dcruEbJr1y7fZ8s5k+GH/QvYRafm53D10w/l1JDXi0XpVgSN8w1qL0fVsQzvhd32YlXIgvdllzp7Fbu5bhDTNJVoCj8quY1FUVfhx4jTfT1O+MExkzuDmKaZaYPhR7UtjINxWcYPFxr7VyZ+HZgmq3JvcocMnS0Mblq8Njm3vVw6478Wmk0Sfji3vRhvTTFd/+vjeAcAAID01HT4oSqFqqeHCjzcW1rUYzavXr1qByLqb/Xrc5rgQzmj4Yd9z/BV+fBomQquew+2VXHyD/5m0Ak/VCXLN5CqVcEMHfBUrVdwgLYSacjNlkFM01Ti3Ag/nHldmZBf+17XnqQUK/zgmMmbQUzTzLQzHX6441dcvmxHH76BhAtmVe5DDPZKdAc8NQ5eHDRJ+OEGPYbvsddaBxV0+I75+jjeAQAAID01G36oCqHq4XHlyhXfGB/K119/3Q48PvjgA3uAuF/+8pe+9+NaCD/MA56eO3vMazhlEH4csm97uSLjgZ4epVoNtPdVpVTN4pJcOO+sz/kL8tHlq/bja4vT2su5LletWZsedXv1g2P+X7Dcx/hZn7lycaL4XSc+uCRXrl7R1peG3GwZxDRNJZYLP+IQnL72wg+30WPNTj0u2nnEpn1cqEdT2ouJE35YcszkyiCmaWbDyclJO9g3vZe9TnlUlASEjpmUe+v88turcmXKujadVo94PyTHio+w9V8f3Ufd+h5fe3ZCPrx0Ra5e0c8JycKP4vfwPer2gliX0uhH3dbw8Q4AAADpqcnww+3xoXp4hPXoOHPmjB18VNLwKoQfYWiVogzCD++XpgBWpezyheMlj8sdOjEhl6btWliBz61G2/QluXBS66KslqMai3uPy8Slq3Ldnf91VdELztPxV4fk3EWrQqnNWk1/5eK4vF0ce2T2KnZz3SCmaSoxGH6oIEMPMwYGBsqqN9IUtRh+bN05ZA+0eFU75q5eviDHh6zlTKvFxAw/lBwzuTGIaZq5YGGgU/ENtl1ixeXeWs6Zj+SKbwbWLKzr2PjR0ifa9I+ck48+1a5jFtevXpGPzr+t9WxMGH5Y7hg6LhdU2uGiro9nD0m/fZ02HPM1frwDAABAemou/FDBx3vvvRfZo0MNflpp8DGj7j0lH1mVoetXPio+yaLguFxwRoC78l7wvmuciwYxTVOJtXvbC2L1DWKaBrGWBQAAgPTUVPihntriBh+qkWaaRjXWPvvsM3njjTeM79eeOwo9TMK6F/OrMGoGMU1TieXCj+DTXEyqx+O60ysIP7BeDGKaJgvVbSzV8sKFC8Zl4twQAAAA0lPV8EM1kkyVN93Dhw/b06rgY2JiIrJHhxt87N692/47OK+Zu2c6ic6I85fHA4OSOjq3w1z/8FjpezjnDGKaphLL3fYSPKZMusesUkH4gfViENM0WaiYmpoyhoeVqOb5+eefG5eJc0MAAABIT1XDj1//+tf2I2pNlThXFZC4wYca4yMq+Lh+/bq8+eabxdf0+ShqtRH2tj3Y6XW58sE5OTYyJEMHlEfk1PkPxR777folOb3X/FmcWwYxTVOJ5cKPpCqCt6cNDQ0Vn8aEWEsGMU2ThQp1vTp79qz09vYap0ni9u3b7WNKhf+EH3NbAAAASE9Vw4/h4WH56KOPjO+5quDj/ffft4MP9RQX0zRujw812KLpfaWidn+B7pdDZw0Dv127Kpc/OCeHfmX6DM5Fg5imqcRqj/mxb98+u3Gm/q9Ph1gLBjFNk4UKFeyrW1QuXboUee0qp5rP5cuX7VtC9+zZQ/gxxwUAAID0VL3nR7nwQ1UOVWUubHDTU6dO+W51CVNB93usd4OYpqnErG97UX+7t5u99dZb9q/dqueH+z5iLRnENE0WKtzr0cjIiH1cHD9+3A77g9OGqaZV4aS6FVT9kKBeU8cv4cfcFgAAANIz6+GHQlXu1KNr1ZNe9PdOnDgRK/hQKgg/sN4NYpqmEsv1/NBvJQtTH/DUVQUfigMHDpS8h1grBjFNk4UK/XqkHtmuxuv47W9/G9rDUVdNo6ZXt4O+9tprxdcJPxAAAADSUxPhx/79++WTTz6R8+fPF18/duyYHXzEfaqLgvAD690gpmkqsVzPjzQeOnTIbpC5v04j1qpBTNNkoSJ4PVI9OdSxpnqBvP322773dNV76gcBdVwF3wsevzj3BAAAgPTURPihbnlRTk9P27e5HDlyJFHwoVQQfmC9G8Q0TSWW6/mRVHULjEJ17Te9j1hLBjFNk4WKsOuRusYp1C2feq8O9W/1mkKNg2W6RYaeHwgAAADpmfUBTxWq8aW606uR8RXqV68kwYdSMdvhx+lLIpfOmN+rb9+WC1evyoXDpvdmw9NyyfrvtPG9+jaIaZpKTNLzY9u2bXYjLOxYVIGHQh8DpHastTKb1hop62fUye20+b06MohpmixUmMaxUgMBq54fR48etYMONdC3umVM3S6m/q2CEXWMqn+bnpiUafiRk30a33xcNwAAACA9s97zIziYojJNiKGo3fBDNcTsVfSRLCixKm5XL8jbxveysLCOap3etv+hV4oJP2bKIKZpKjFJ+KFUgzSqXliDg4O+11WwqajN4EMZVWYNx6NW3k9foqyXSPiRSEXweqRu71TBhwo71N9qjCsVeqjjS71+8ODB4rTqOFU/AqjbP93X3NdrN/zI4jpXTQk/AAAA5jqz3vMjKxW1HX4EG1SqImYRt/J5WP1KWM3wI0rCj5kyiGmaSgyGH3Fue1GDEavGmfu4ThVqKmr7VpfwMquO0/DjjrJulPAjkQr9euQ+Atr0JCQ1uKkaEDX4uuo54vYGcV+r/fCjlo6doIQfAAAAc505G36U9m4IhBdWxfDqhdNWZc6edYHA9PY8XK5ekAv6532GVQpVZUx7XQUczuxs3LBDVVJ1tBDEbsi56OFIjPX3DKyH0he2OOuvvmCRYCVSzcPj6gVvQD+1nS6dUfMovGdvo6Tb17e8QiX2Quj7alnW377tpt73r6N/X5Vb//D3szSIaZpKdMMP98kt6vgsF36oX6hVF3z3l2iFaTDGSlTl2L9N/cdMnH3gOxYuWcdjSEPMd5z79M/fWkLx82HHmV1Go84jysBx7b3nlNPi+3oZdlXrFCjr+nGuTDz/6O3oP+6cbaCOJXubOi8r9O9d0fFsOl7N+65Sg5imyUKFez1yg480YaEKRdyxsNTfFYUfvnJibV/7gqXto9ByFCj/Fubzn/+YDerf//75F45v9XntPUOZUsv1zUc/Fuz1DxxDdrl1v2PhWHLfD66P/p2M62N/v8LfLvp3mCkBAAAgPYQf2mu+RotdEdcrcoUGg/99raLlVBzNlaHwSqFaplfpsip2xWkKFa3ie2p5gUaP/R2013zzKrf+PtV7gfVT36c4b6fSF2jseMsOrGtgfm4l07fshNvXv78K0+rrY1fOi3+Xrm+h8q4tzzf/OOsf3NeB7ZWRQUzTVKIaVNENPuKGH67umDyq54f7miKLHlf+40Cp9kn8fRA8FkrLl2bUe4ZjIThvfV395dJ73yvrgXLta6A55VT/XiUWPq9vG/8yk84/uqwHj7ui9uvacoLLLdmmpve9+fq/g7Oe2nYs2Z8ZGcQ0TRYq1HGhHgsdvKUlqXoAouapME0XbWB/lGzziHKk9l2gjJtV84w65rRyZTp+9eUXP6PNz/6Mmshfbopl2Vf2HX3rrr6jvg7W9bb47/Lro17zn6NmRwAAAEgP4Yf2mq/RoipNgcq33ugxN9b8lSX/e+ZKYel8PH2VrZL1MSxPVeDcacqsv19VKQysnz4v43fTPmOodOrrbtrWybevXnE1rK9vfqXrW7oO2vwSr3/Uvq7MIKZpsjTp017efPNN39+KGQs/QvdBmfJZfE1Xve9QUi70zxnmrR0bprKtvktx+pByHr7eQQ3fQy+vSedfpqyX7gfHcueTio7neOuZhUFM02ShQoWLKvhQY32YpkmiCkCuXLliD0CcqueHYf/4ym5UObL3RdSx5FrYj34K+9BUrvRyZzqOStep9FjQ52EsM2oexfnqZS6oWndv3qHrE/r5mRMAAADSQ/ihvVas7Km/fZUm7/1CRcvcaPF93qe/YqXrrxSqypmf4nvGiqAJp3IWuf7eawVLK5V2RbK4PNP6a9vArhQacJbvq6C6xti+pbjrYKjE+rZP6fqW7m9tHonXX/vuxdeyMYhpmiyt9FG3ipkKP8L3gaH8GspAmGrZXtkJzkv9baJQdsqdR+z3DXjlvNw6Gsq6to6J5x9Z1vVtGjDyeC33fmG+pbjrZljPHIQfCjWAt97TqhLPnz/vzDX5epvKqb7PosuRmt7bh95rQQ37sfh6abnS10n9u2S+JWWq9Dj3fS5p+KHe8+HN27g+tt75oBrn/zgCAABAeqoafqju8R9//LE9UGK1VVQWfgQqaJGV+UDFX3vfXCEKqRT6flErVKr0z/sqYGp9fOFHWEXTscz6+y2tVPqXZ6q8ap/xBSWlxqvYlm7f8MploBKrLFlf//cp3d/aPBKvv2l7ZGMQ0zRZqsKPSqlO+OEvk9H7wLQ/SstAqL5GU/BYiJ5PabkKrIuhnHvGWcfg+ljq65t0/mXKeug5oszxWtnxHLKexX2SnUFM02Rh8AlmWaoekWtaZqS+86P2mrvPIsuR39AyElGeTZ/Rj+nS49uyZJ1KjwXf5wxlxn98aud8NW/ftP51N66PTzW9NYcqXAPKCQAAAOmpes+PmSRRIyxY+bH/1iozhspgSWVf/7xd8QqrDIVV7vUKYbBip/6OWJ6lXbELa8iUW3+fhYqc917hb2/ezt/a/PzLDn7er7EimXT7+tQqsa5qet/6lFaS/cvT55F0/QvTV6PiG8Q0TZbu3LnTGCYm8Re/+IVx3kkMlmX7b+14KLcPgp8vlJ/AMRei/7OF407ftyXz1g2WU/tv/fOl8/MsLaelBs4Dluo48cpy0vlHl/XQ4069Xu54TX08G9azzsOP2jNYTgrlIF458lt6LLpGlOfg/rf3rzetcZ4lZUqto3/+/s8Fv0Phb/93dNZBzTvifBH+HT1V+Y6zvbIWAAAA0lPV8KPWtRsRLlZF6LRV4SlWZkoqXoHKvKXdKHIJft6nU9EMEJzWNz9VSbPWwVueNg+t0ub/jIW7zjHW36cTxrjYT9YoLkctu7A+HsGGSel3dL+fsSIZZ/18y7Moro9WidWn9a1vaSXZv7zgPJKsf2Fa876uzCCmafJpYPtb++r0pajGSOk+8B3Pgc8HP+dDO56U3jHlX74PrSxFnkdsnUZYEXe+al1M66hbOA7VPIsE1jf5/Eu3gb6+/u/qfL7c8VrR8WxYT8KP7PWd463tfcb627fPQspR6H4LWqY8B+YTLHP+49uZvmT9/PMv+ZxvGcHvqD7vlqnAMWBNE32+iT4HzKQAAACQnjkdfiDWmkFM0yBiOoOYpkGsZQEAACA9hB+INWQQ0zSImM4gpmkQa1kAAABID+EHYg0ZxDQNIqYziGkaxFoWAAAA0kP4gVhDBjFNg4jpDGKaBrGWBQAAgPQQfiDWkEFM0yBiOoOYpkGsZQEAACA9hB+INWQQ0zSImM4gpmkQa1kAAABID+EHYg0ZxDQNIqYziGkaxFoWAAAA0kP4gVhDBjFNg4jpDGKaBrGWBQAAgPQQfiDWkEFM0yBiOoOYpkGsZQEAACA9hB+INWQQ0zSImM4gpmkQa1kAAABID+EHYg0ZxDQNIqYziGkaxFoWAAAA0kP4gVhDBjFNg4jpDGKaBrGWBQAAgPQQfiDWkEFM0yBiOoOYpkGsZQEAACA9hB+INWQQ0zSImM4gpmkQa1kAAABID+EHYg0ZxDQNIqYziGkaxFoWAAAA0kP4gVhDBjFNg4jpDGKaBrGWBQAAgPQQfiDWkEFM0yBiOoOYpkGsZQEAACA9hB+INWQQ0zSImM4gpmkQa1kAAABID+EHYg0ZxDQNIqYziGkaxFoWAAAA0lMSfgAAAAAAAAAA5AnCDwAAAAAAAADINYQfAAAAAAAAAJBrCD8AAAAAAAAAINf8zhMDf18QEREREREREfMq4QciIiIiIiIi5lrCD0RERERERETMtYQfiIiIiIiIiJhrCT8QERERERERMdcSfiAiIiIiIiJiriX8QERERERERMRcS/iBiIiIiIiIiLmW8AMRERERERERcy3hByIiIiIiIiLmWsIPRERERERERMy1hB+IiIiIiIiImGt/RwAAAAAAAAAAcgzhBwAAAAAAAADkGsIPAAAAAAAAAMg1hB8AAAAAAAAAkGsIPwAAAAAAAAAg1xB+AAAAAAAAAECuIfwAAAAAAAAAgFxD+AEAAAAAAAAAuYbwAwAAAAAAAAByDeEHAAAAAAAAAOQawg8AAAAAAAAAyDWEHwAAAAAAAACQawg/AAAAAAAAACDXEH4AAAAAAAAAQK4h/AAAAAAAAACAXEP4AQAAAAAAAAC5hvADAAAAAAAAAHIN4QcAAAAAAAAA5BrCDwAAAAAAAADINYQfAAAAAAAAAJBrCD8AAAAAAAAAINcQfgAAAAAAAABAriH8AAAAAAAAAIBcQ/gBAAAAAAAAALmG8AMAAAAAAAAAcg3hBwAAAAAAAADkGsIPAAAAAAAAAMg1hB8AAAAAAAAAkGsIPwAAAAAAAAAg15SEHydOnEBEREREREREzI3G8AMAAAAAAAAAIC8QfgAAAAAAAABAriH8AAAAAAAAAIBcQ/gBAAAAAAAAALmG8AMAAAAAAAAAcg3hBwAAAAAAAADkGsIPAAAAAAAAAMg1hB8AAAAAAAAAkGsIPwAAAAAAAAAg1xB+AAAAAAAAAECuIfwAAAAAAAAAgFxD+AEAAAAAAAAAuYbwAwAAAAAAAAByDeEHAAAAAAAAAOQawg8AAAAAAAAAyDWEHwAAAAAAAACQawg/AAAAAAAAACDXEH4AAAAAAAAAQK4h/AAAAAAAAACAXEP4AQAAAAAAAAC5hvADAAAAAAAAAHIN4QcAAAAAAAAA5BrCDwAAAAAAAADINYQfAAAAAAAAAJBrCD8AAAAAAAAAINcQfgAAAAAAAABAriH8AAAAAAAAAIBcQ/gBAAAAAAAAALmG8AMAAAAAAAAAcg3hBwAAAAAAAADkGsIPAAAAAAAAAMg1hB8AAAAAAAAAkGsIPwAAAAAAAAAg1xB+AAAAAAAAAECuIfwAAAAAAAAAgFxD+AEAAAAAAAAAuYbwAwAAAAAAAAByDeEHAAAAAAAAAOQawg8AAAAAAAAAyDWEHwAAAAAAAACQawg/AAAAAAAAACDXEH4AAAAAAAAAQK4h/AAAAAAAAACAXEP4AQAAAAAAAAC5hvADAAAAAAAAAHIN4QcAAAAAAAAA5BrCDwAAAAAAAADINYQfAAAAAAAAAJBrCD8AAAAAAAAAINcQfgAAAAAAAABAriH8AAAAAAAAAIBcQ/gBAAAAAAAAALmG8AMAAAAAAAAAcg3hBwAAAAAAAADkGsIPAAAAAAAAAMg1hB8AAAAAAAAAkGsIPwAAAAAAAAAg1xB+AAAAAAAAAECuIfwAAAAAAAAAgFxD+AEAAAAAAAAAuYbwAwAAAAAAAAByDeEHAAAAAAAAAOQawg8AAAAAAAAAyDWEHwAAAAAAAACQawg/AAAAAAAAACDXEH4AAAAAAAAAQK4h/AAAAAAAAACAXEP4AQAAAAAAAAC5hvCjTpl85V5paGiwbT/ovAgAADPLwfbiufjeVyadFwPEmQYA6pBJ2XJP4dhuaGiXYedVAACoTQg/ynD+hTudi1qjtO2Zdl6dfQg/oFKmT22R1tsXy+Lvb5Kjl50XoaaZGu2W+292Ktr3bLGq3ZUzPdBWPJfc+cJ551WNz6Zl8tQ+2dLRKndb5eXLNzjLt2z8qio/bdK9/aicr53TYzLOdMud7vf5m32S+GsQftQx03Ly5VZZbJXr+589mnzf54xare/UNoQfAAD1BOFHJCel+3b3omb5QK9MOe/MNoQfUBlTsvOHXtn+xtNHndehJvlsSoafvVtudPaXbSbhh14O7pfei87LCmuZJ/ufknu/2ugtM8obFsuKPkN4UuOc7FqsfY/ANogD4Uf9MrVTWp390tDwDXlq1Hl9TlK79Z3ahvADAKCeIPyI4u2n5BvFipEyRcW4ShB+QGVMSu93vbJN+FHDTA3LpqYbi/uqaBbhx8Veud+dn97YmbYaQsFl3vBlu5fH2o61nj+6X25ze6LYNlqN+zoKQD47Kk99Q1//Brl/e8ImH+FH/TLZK/c6+2XOhx81XN+pbQg/AADqCcKPUKZl3984v3jecWexW7SxW/gsQPgBlTJ98Cm502q4Nn57heysdrF2G9lrclg1dBoN1WjUTh3aJHcXw4VGubdrt2xyK9oZhB/6eaS1z9/oP/r0bfbrjd9ulU39J2XqM+eNIJ9Nyu7Vi6XRmU/DDa2ys04aTdN72pz1ts7xdzjrf0e3JDocCD/qmGkZfvJOudE6thav2innw8p47qnt+k5tQ/gBAFBPEH6EoXWHXdw17HUN/8ZTcrQGKkiEH1BPTG2/v1Becxh+HH3yG/Z3y7RRG7zN5YbF0j6g5n9ettzlvFZx+HFeut0G/w1tsi94i/9n52Vf/9Hw0MPHlPQ+4MzL8t5t9dDA1275ub1bhvtanfX/hjz1tjNJHAg/oN6p8fpObUP4AQBQTxB+hFBsrDldYaeKFePGmggbCD+gftAambkLP7zbJjJt1F4elvZvFuareub0nnFet6rW7c5xX3H4capbFjvzSjXQZwDvHGlZD/tZu+XHvu1LawA2Jll/wg+oc2q9vlPbEH4AANQThB9GtF9E3V8+9IpxBg2FSiH8gLpBH1cib+GHdp985o3a81tkxareQFf87MIPt8dK4p4OYWgN/HrYz96TLdzvr4V0pp4wYRB+QF1T+/Wd2obwAwCgniD8MKE1aLyBILV7YmMPBOZdFO9+Wbt3dmK48NjIb39Zu0/+y7K4qVXWvjIc65GRicKPz6bl/Nu90r1aParyNt8TI2785mK5/0fdsvtUgkH+ps/L8CtrpbXJ/9jLaO+VLRPO502YtsnNtxUeoxk13kCR6m3rItb3Prq9W9qX3S2Lv6kPBnmj3Hb7/dL2wm45GXesg6mTss/Zhr4BI9W6qXk9u0V2v31epqO+d4XziF2G1FM/9myRtSXfu1G+/G1VfjbJlv7SR51On7e2/Zp7Y5WRssvv75a27+vfUy37bmnt2CLDUeXKofhd79rijefw2aShHGvzjSgcU6d2y6ZlaqwA93Nhlin3icko/NAH+syoa/v5l+8ufm/fMViLBL+/87I3BkiCgU+zDj+M5b281T6GvO/QLvvc8mLN9+h2dQxp1xVnYFzjeVtbD++Y086fCceazfK6Ed5wnYFri8I6n+9+oU3u16/R2vwmMzhGjWRW38n+PFtC1nWPTK7p5jKkrhHdP7rfN1/1aPC7l62VLQdTnLkrLh8zVI4BAGocwg8D3i+id0p3sbu5v2Ic79c77aK4ep9d8St5XKXJG+6Up96OvuLEa7hOy8ltbfaglr75h3jbw+UHfJscaJfFsSsdmje3yk7TJou5Tfxd/01Ub1urJ1/0/ihOQ1d5W5nHfVr75JUV8bfhV9fKcMnqZTGPeGVo+vgWWfHtmI86bfiyrD3oLkhrpMcwtAyf6Y2x/Bvl7meHIxs63nctNNz8A4mG2Sh3Wo2Bkk03sUV7QkQ5azP80M9li7tOOq9WgAoTnNt0gufNmkRr8PkGdZzeJ23ucRV3+2YYfkwf75b7EwQeRa3GylOHnJkEyegY8r7D3bJFbbLzO2VFcZ+bbfzOU3L0cuHjsdbjhsXaOSSCalw3YoQfmV9bHM5vj3E+v/lu2XQoaTpUnuzqOxmfZwNkWvfI9JoeKEOfnZedq7QBoEO8sWmTd2yUIZvyUf1yDABQDxB+BImq/Oq/FsZ6IoB2sblrk2xZU3h6gv2rx3dapb1D/WK+T3a/sknW/ijwC/kNVqMpYgHxwg/rolns2q1+dbhTWlcXlrlvj+X2bmn7rpb2W94Z0RCatiq/t7nTWpXUFS/sk5MTUzJ1saDqXfKU/njM72yS4cmIi6aqJDzsbhPljXLnsnbp3q7Wb7dsebZN7v2qVlmO3CbV29bWVvS6BbvzU70q1Da07H0hsJ6qEnnK+WiAyW33atu78H3XvtBb2B97eqW7o933K+ptxV/iPLKYh6JsGZrolXu17XTjHWo7dktv8XuvtX8xK/6S/E1/D4Jpp1xMjXbL3c48Gv5md7G86Jp6p0xbDdQ7teU3fvXeQm8WtXz71zp/5fW2NcOhFWjvu1oVxJe9clw4JtbKpld2y77+LbKpI7gvDY9u/WzaW/f+tuK0d3cd9X0n18jeO4nJIvzQf9XNIKiwjuNe7TiO2g+1gf79S8OpsMZgKFmFH+e3aMfbjXL3k71y9IxXjiZP7ZNuvVH1ZfWUpujyleUxpH+H9m290urM98Zv3i9tzvm1cE7wz7PxhztlUv9uN98m9//IOeasdVi7utUf0Jd7WlC1rhtxwo/Mry3TcvTpO7XzuTXP77YVto19jrXO5XfoPRJus87VGR5dmdZ3Mj7PamRe98jwmu4rH99pk/bvup8rlEt3X7rHm698fNMqc5EBSJblo5rlGACgfiD8COAN/GXu9nz06ST3yesVq4KN326X3WG/BF8+Kd3FC6c1bcS9tnHDD7m4U9auie5aOmk14NxfQUPvddcrQqrBEHYh/GxK9q12t1GjtO0JX+75l73vYG8XU5vAmt/RLq2xb1XCThor+9Xb1oqpXValPqoLqHrc54/c7x02P20blqtMWN/7pFWRP1rSCMhiHgXKlSGvrEdXTBVTVsNs99shvzrpPSXijgVxeZ+0F8vbjXL/CyfN+2dit7QVf322ytuAeQfp39VWPT2lPyw6mJaTepmLGv8hTqM2UzIIP7T7+VPPQwVAE+q2q3bfo3jr4nGh+hg0D/RKSakd1W4DeNIcHPrIJPzQn5bzDWnfH1bgVKDtleXIR5FmfAzp36HgbdIWdgyd0YOcRrnxZnWuVb/wh/QuCZyPvdsvSqnedSNG+OGY1bVlen+7d+29+X7pPm6eUl2jvcZ/m+yO2WOgHNnWd6p0nq1C3UORzTVdYSgf3+2Wo2GdMKaG5anvaGU9InDMtnxUt44EAFAvEH740Cug1gXEdKY/0118Bn75JwIELjblftFS6A3FG9aGVMb8lYzI8CMW/oq3Gu29BK1BUPZ7a0+RaPjRbvMF86LVAHMrx2W3ixqI0L0Ih1VqqretY6M3qrRxBIqkCQGCZDEPh+gypG/PsEZBTFKs89GntZ4EEQ0hG6tsFit+Ib9Q+ivljdLaF1YzddG/f6OsDbuloA7Dj3INHhMljRrdG74sdy7blGzcoFlE//7mhr7+CGDVjd15OYwswo8kgdT0bmlzp73datQ7LwfJ+hgKhh/3lhnXRe91qGwMuxa4HN/kXTf0MSN0qnrdiBl+ZHVt8d0qdpv5uquh78/I0Cs2Wdd3qnSezbrukYRy13SbQPn4RrvsKxdOXbaO4WI4GNLDLPPyUaVyDABQZxB+6OgX+tCUW68Yl3sigP9iE+/e+vOy5S73M/eGjheQbfihfk3zBis0zW9Ke4zlvdvKNbnKN9D0inGsipxV8S7+QvTDnVa1LUj1tnV89PkZKtJ6A8f0i3McspiHQ3QZ0p580RB/wDsjScMPvSt22WNMoe97c3jnq5RHNBh19GMi/S/6WVNp+KFvK6vyG7MARYUfhUGTN8mWg2UG6K0J4p2/vfNT+V+QMwk/9AZeR7ljRN+HIQ32KhxDvvAjzjz1hmjYPH3ov/Cbv1d1rxvxwo+sri36mBqxflXXz6OhDfEEZF7fCZwnMjrPZl33SEaZa7pNmvIhcrJrceRnsi8f1SnHAAD1BuGHRtxHP8b/5TRGhdLA8Br3MzMXfpSbn/5++V9zylVAJqX3u877DYsj7qXV0Bv9xl8gqret46Ovg6mipP/S1iiLV+9OMYJ/FvMoUG6f6+U8sntsOZKGH4fWeg2WmL/eed2zzRVk/btGdan3kUWjNnMqrNzHavCUMnWwW9Z2rPWrnh7le0KCpRp0r5YHx9OfbBF1S0u5W2N0sign2vvly2e584xFFY4hfR3NQUKAxL8al/te1b5uxGncZndtGe7wbikIvdXIh//2j94KTzfZ13esLVWF82y2dY+kVK986IFnw3d7S9Y1+/JRnXIMAFBvEH64fGZdNN1fylRqHtWg1CvGkRdY/WITv7JSi+GHXpkuW6nRK73GirdWQQmtUATRP1Puwp7tto5PjIqSb1BDy5vvlNZnEzwiV5HFPCzK7vPPzssW7Z7fwgBuKW5vSBh+6OsVN1DQP2P65dw3z7K/Hjpk0ajNnMoq94l6NMTl4knZ3aEPynebrD2U0bwzZniNW56jG3z+kLHMuSGLcjLZ6x0j5YIF/VoV8ut6NY4h/TuU751ioR/3scpqufNnta8bcRq3WV1b/POMd+3RPxNxK14cqlLfsdawGufZTOseSale+YgO5qpRPtKtJ+EHAOQNwg8HvYthMqOeCBDnwllKNcKP6TNHnVG875fFty+2LT6lI6Bxfr5u1NZ6hfY4nrbW3xtF3NjA0iv6qTRtl+pt6yKfTcv5t9XTBNZK2/cL23Cx/sx9nxHrMLFb2n0jtBdUT1PZ1H8y+nGTLhnMI1YZUoO+rTE8EjBJ4JIw/NB/8UqlYRlJjxebLBq1mVNJ+KH9MliuwZOC89Y2Lp5DYz4dIoh3PIYZ/9guQT+HJTTyFotMyon+9InoJ3ro2zlsvapxDCUu61mHH7N23ajGtWVY1qYsi66xz2MGqlPfqdJ5Nsu6R5BMrunpyofvXF7yuWqUjxmoIwEA1AGEHzb6r3zJDe8+Xb2LTbxKxrSc3N4eeGRbecPm53vE6s13y1Pbj8r5i04FY3pKps4M+x7F2PjdLeYnP+iV4lSmrcSWEuvCfvmk9K4JPPqtrOXXYertXmkPPGrY9oYvy71P7ot1O0sl80hUUb14NGQbqEfvPSX7oipFScOPsg3gMhJ+mIl7y0dq9AZ8zNsSApTf9/GP7SB69/3ERoVFGZWT6UNrjY/ztMdRcZ6us/vJu72GWcRjMqtxDCUu61mHH7N23ajGtUVv+KYz9nmshGrVd6p3ns2s7uGS6TU9Xfnwl4Hg56pRPqpYRwIAqCMIPxTaffANd7SW3ttudIXcWfw1wrqQGC+01bvYlK1kfHZedj7sjf5daKQ6z4c/eFImnefj205N278mRs7PZlqOPqtVvkNVj7zsDa986JXY29ul13m2fnxNj6er0rY+v1NWFEdct1ShghrcsX+fDJ+a9Lahcvp8ukqQ9bnhVwwh1c33S2/cn89TzCNVRVX9UnZwiyFwuVHu3xayoArCj/ufM+3/Mh4vvWmA8ENtV7dsJLgvPSHJ71P3c36X6VyruzNVjxJ/MHOntBrnXeqK4iMpG8PLTYbl5HzfClkco0F2Y9MmGY64N6Yax1Disl7N8GNGrxvVuLbojdv7ZZNxfaNNeptjkarVd6p4ns2q7qHI/Jqernz4y0Dwc9UoH1WqIwEA1BmEHxZp74P3GhNhn6vexaZcJUN/v+GbbWUHq0xSaZnctUK+bE97o9xYvHWmUb78bfXUh+4YY0JEXfTTUo1trc+zQW77m3KDi6atBHlMvb1FVnxbCzC+uVaGE7Yh484jVUVV5+JR2aL92hY61kPC8ENfr6wChVTfNcNGbXakDD/0ruMpb0mJQ6wn5MwGKQd6Vfu3+Gty2OcyLifTxzc569ponV+941g9VefuZWtly8Hy27Uax1Disp51+KGX/Rm9blT72jKzjcrq1Xf85S7b8KNA5XUPfbtndU1PuS/1MT9Kns5SjfIR57uUQvgBAHmD8EM9S929Dz7WIwE1tG7k5icCVO9iE13J0B9PVm5gvwL6Y9eiKi3nt91f+PXlmyukN+Le32j07ZKue3wpVdjW57fI3fZ7lrHGSDgp3be784u/DiUEBhpN8wt6nHmkqqga8I31YBpkLmH4oTc4sxm0LuV3zbhRmw3pwo/pgbbiesZ6RGhK9q121s2yfb/zYg3gPdkiWYPPd30Ie+RzhuVk+uDaQs+PG+6Upw6Va8hFUIVjKHFZzzz8mK3rRhWuLRZemJDyHJ+GqtZ3qnietcik7lGVa7pePhIMRKsfo4ZBjrMvH9UpxwAA9cacDz/0gb+S3wevd6U2XRiqd7GJrmT4fyHbV/YC778HOLTSUhz1PWEDwoD365PVGIv5XPxoqrCttUpZw+p9zosR6KPiJ1gHI/sTNjRMlJlHVuGHfLYvukGuN4LibEffAHdtsjtkXIMkzET4cffL1QsVPNKEH/rxHdKAzwJfUFBDFWW9PKUY6FU/VxnLQcJyEjqNtv0qDqiqcAzF+g46mYcfs3XdqM51XK97NGYVUJWhuvWdKp5ns6p7aMvK7pqulw9ru8Z8xK8XyJqP9+zLR3XKMQBAvTHHw49p2fc3brqe7pckX2Ws5AJWvYtNufDDGym8/AVr2mokF3/RMc6vwFRfa+x5lsVXqbg3cgT5eFRhW2uP2CtfebfK0mqvMpNkHYzowUXcRwYGKTOPqoQf3+0t3U76UxpCHs0ZRK8YfsOqpMZ6Ak4EVauU62VkRhowKcIP/VgL+cW2hBTb+/zL3jau5q01SdEbEYvTNJh9YyQYvlecchJnmlHvl/WKjkeHrI+hWN9Bpwrhx+xcN6p0HfeFhd+Q9j0V9PSJRbXrO9U7z2ZW96jKNV0vH5Zxwkbf4+pDAunMy0eVyjEAQJ0xt8MPvSKVtrKuz6PkV8XqXWyiKxlTsvOH7jwa5LY1w6GNssk9a72BzELn52BVUtyKg7pX9nyFvyb6bpe44U5Zu+d84ckGIUxPnpR9r7TLFmO30ipsa/2e3KjHT342Kfs67vS+i61pHYZl0w83lb8veWpYntIGZ/RX8LOYR4FyFdXh52I8NvezKRl+MrpC7HvEqqrE7Y8REVy2GvnaoHS3PbxFjkb1WLAfWdgrm57ebazQVi388JURqwxVvcWfPPzQGyyxu08fXCtf/q51rO05KZPlPjJ9PlD+Q8Z+mRX0Xi/Rj+kMR5+H4TbCOOUkzjRaWND43W45WnbDlyHjYyjWd9CpRvhhMfPXjepdx6etbVp8wo913Kx45Wj0+fbyeTm6fZM81R9j+wepen2niudZa5pM6h6ZX9MVevko2Pidp8IHJJ7cLW36cdkRXj/LtnxUrxwDANQTczr80BsF929Pm6pPy+4fuReHYJfM6l1sylUyfI9NtLxRjequnvRijwTeK90dbdqTQayL6iqvQhlaaVG/ROijpId6o9x2+93S2tEbXdm2tp33XH7Hm2+Tu5e1+0aaV8/fv604uFnY+lVjW1vr16Gv341ypxpwsN8ZUX17t6z9kfa4vG+ukBXFcTZM66A1XJ3vaT99xxmdffcrm6R92Z2+x++VBldZzKNA2fCjuG2s/dnUKu3PbpHdznL29W+RTatb5U796TIRj9482eUda2p+d/+o23law27Z8uxa2bTHUFnz/TqmVAPb3S9tWtlYa63D3d/WnjwT0siqWqXcPv61bXDDYqvcu9tJHWft0nvcmTQTkoYfWlf1JPf4a99dqQbbvP9HapsXnopgl33ru7U23RZ4AkPEU39mA73XRtxeLwb0MVNKBj6N2XgrO40dWmtlKVRvgMd9pY8v8ZPhMRTvO2hUKfyY+etGdRuNvjBHecOXZfH323zfpX3Z3bJYO9fG2v4Bql/fqeJ5NrO6R9bXdIVWPh54Sp4qTq/mbZXJF3qL81bXZv182fjttaHXTJfsykd1yzEAQL0wh8MPfSCryu6D992b6asYV+9iE6eScf4VZ4CwKN2B9aZ3S5vzWlSlZfpMr7R+OTCPSG+TFX1RjaFpOflKvMc7FrzRWl/noz6qtK3VwKEP3OhME677S4/XSDKtg347UjlvlLuf3GcYiT6LeRQoG35ojy0t541NT8m+qPp4YADWoKGV3sl98lRT+e3v2mg1cI3VvmpVyhWBX9iDxl5eLBKGH9qtFI1xBpt1Od4td2oNxzg2fnuFbBlN26iqDvpAzukbfBaBMTR8IVJm4YeF6rH1bWc5sWyUO58+ql1zDGR0DNVO+KGYyetG9RuNk/ufkrtjH2+NVlmOsf19zER9x/oeVTzPZlb3yPSarvDKhz3ukzX/Xt9T0Mze+EC3nIzZgyWb8lH9cgwAUA/M3fBDG7k80aMPTfjuzdQrFtW72MSuZEwMy5Y198vib2oXe/XLQZPqCTIs3g+HVoXAeUKMcX5WpXxTsQJt+PWwqPo12P+Lm6qEPDXqzCeMadVds9v+tU7/BaOwLOcRj5Fd8Kt7YZ88uEXaA78kNn7VffSk1u26OJp8yDp8NiUn+9UvQHfLYv3XVuXNt9n7pf2F3YZn9GtkMQ+LOGVo6tRu6Va/DN++2NebRDUm7F/YVsd5vKCDtd5Ht6/19xZw1rd7NPoInDq1T7Z0qPUI9DRQn7/dKosv9MrRM+HzqGr4oVDdpF9ok/u1/aHKx+Lvt5d9zHQykoUf3rgP8Z765MO5DUL1Ervf2v/+49LS3fbPbpF9ccvATKKfl5P0eglBH0PDF6RkEX4EGkw3flMdW6bza6FHQ/Ac2dpXfvtXegzVVvjhMCPXjRlqNKrz+p4tslad1/XrtaXqeaV+7e/efjTdLR8zUt+p0nm2SnWPzK7pxfLhf9KLfe38kb/u5c6/9+0U58uKy8cMlWMAgBpnjg94CrHQf9n+Zlu8xpzVcDr5stZdc4ZGswcAqCv0XlE33CvdMXvPTO3RxgOIOZAwQF1B3QMAADKG8APKcvJZ9x7ZGD04dPRfiNTgaM7LAABQYGrXCqehFq8Hh4c+EGur7EzxYzJALUPdAwAAsobwA8qg3SucuBKRrpslAMDcQB9AMnmAQZd0yC/UPQAAIHsIP6AMCQdY1NF/fblrS7pH6wEA5JZKGml6z4922Rf1CEyAuoO6BwAAZA/hB5RB+/XlBqtynqCCPdXXWrzv9htP0/EUAMCP3vMjYe+N0ae8MT9+uDP1Y3wBahPqHgAAkD2EH1AW/SkHt63ZJ1PlKiFqwLHtK7yK+Q33Si9dsgEASpjafn/x/Nr43S1yPkYjb+rgU3Jn8elLt8naQwzpCPmDugcAAGQN4QeURx9x3bLx2+oxubtl39vnZeriVMEzR2Xfnl77sah3+h45eJu0H6RiDgBgRH/ai/Lmu+3Hzu47eFIm3fPrxEkZ3rNbtjzbJvf7HnPZKPe+Qqd+yCnUPQAAIGMIPyAek/vkqeKz9uN5Y9NTso9fXQAAorl8UrasWuw9njOGjd9eIVtiPhYXoG6h7gEAABlC+AGJmDq12/6F5e7bb5MbfRWORvnytxfL4u+3yaZX9snJSX5xAQBIwvT54ULvjtsXy5eLt7UUvPGb1vm1qVXaX+iVo2c4v8LcgroHAABkAeEHAAAAAAAAAOQawg8AAAAAAAAAyDWEHwAAAAAAAACQawg/AAAAAAAAACDXEH4AAAAAAAAAQK4h/AAAAAAAAACAXEP4AQAAAAAAAAC5hvADAAAAAAAAAHIN4QcAAAAAAAAA5BrCDwAAAAAAAADINYQfAAAAAAAAAJBrCD8AAAAAAAAAINcQfgAAAAAAAABAriH8AAAAAAAAAIBcQ/gBAAAAAAAAALmG8AMAAAAAAAAAcg3hBwAAAAAAAADkGsIPAAAAAAAAAMg1hB8AAAAAAAAAkGsIPwAAAAAAAAAg1xB+AAAAAAAAAECuIfwAAAAAAAAAgFwzZ8OPqakpRERERERERKwj00L4gYiIiIiIiIh1YVoIPxARERERERGxLkwL4QciIiIiIiIi1oVpIfxARERERERExLowLYQfiIiIiIiIiFgXpoXwAxERERERERHrwrQQfiAiIiIiIiJiXZgWwg9ERERERERErAvTQviBiIiIiIiIiHVhWgg/EBEREREREbEuTAvhByIiIiIiIiLWhWkh/EBERERERETEujAthB+IiIiIiIiIWBemhfADEREREREREevCtBB+ICIiIiIiImJdmBbCD0RERERERESsC9NC+IGIiIiIiIgz4mtHz8jSnn3yxfZe+f0VPfI7y1+yVf9Wr6n31DSmzyIq00L4gYiIiIiImAM//vhjOXr0qOzdu9dW/fvSpUvGaWfaN0+cl8b1O+UPH3mlGHiEqaZR06rPmOaFc9u0EH4gIiIiIiLmwOvXr0tra6s0NDTYPvTQQ/Zrpmln0p8OHjWGHHFUnzXNE+euaSH8QEREREREzIG1GH6o8OIPVm0xBhtxVJ8lAEHdtBB+ICIiIiIi5kAVdPzwhz+smfBD3bZiCjR+9+GX5dsv7pMn9p6QV0d/I5uHz8i/3XYw8pYYboFB17QQftSqF8dlZKBf+g+MFf6eGJXBXf0ydCIwXWwHpc05CTY0dcmYcZp8OblnnSyaZ33fm5qlJ/V2K7Va8412TLqanP3X0CaDxmlqwTHp+d58ax0bZdETgzJpnCaeY91NzvdtkLYB8zSIs+HgY+6x2CRdZc8BZc69Y0PSv2tQRsYLf48fHrT+HpKxi4HpEDOSc2vljvU0y3xr+zV+a50MTpqnqcy5V2errvndnmp8j+BrKuh48MEHi8d5WPhh+mw1VON2mIKMXSffd1plft794JL88Y+2Gj+j5mVaBs4900L4kZl641S5QNYdME1nOdAmjcXpLB8bLJlmfGuL836LbLMqxYNrGgt/L94oI4Fp45nyxH9xUsbPjsv4hOG92fLimPSvb5Glt6pGduE7zb91qbSs6ZLBY5PF6YrbzLJl67h/HhVYrflGO7vhh15ZNlmsQI/1SJP7+tfXyVBgPkmkgj7Lusd+VSr29W124ceY9NzjvKeuA5N9stKZtulFJ/jOm1a5Gt21UVY2L5JbVIhsfdfGryyS5if6ZNR0nTnRL50PLilOO//WZmnrGSkNVpPM98SgdD3WLIuC15D1/YlDp5FnFhXnYV/395unqyU5twa06mTu9mjqDhx3E9bxe6uzf+dZx/sx9bp23EbV9SqS8CNba2x7To7KYHe7tNzlna8abloozY/1yJAThMdxYmJCpqen5fPPP7f/f/nyZft1FXSE3faiptE/8/777/vmmbXqiS1/FNKT49+8tE8mPr4i/37XO/L15wbk9pf3y6fXPrPbaf9u26+Nn1Hz4ikwqEwL4UdmBsOPBln0zIhhOlVx9hrPtobwY+pEjzTfpH5V6JQhqzJW+JWhkl/T0534x63lhq7jbHhxVLruCWw/3e/1yLg77bFtstK6sCx9cKMMZRneVGu+kdZJ+DE1KUPrrUbFYquBsn3UN4+kUkGfXYeeWGBv+5LGAGYYfkzK4BOLpLFhvjT3qO3s9Jyat0jW7fGC3Nw4MSSdd3mBQ4m3Wuc2/Zx6rEua3IZBwIVrtGthkvke7pRFpmlcb21P8Ev+iGxc7P/8gieGDNPVlpxbA4aGHyrkcOsbjb5AcnJ/pzQvXmQ1VvtktCq9tAg/srWWtue4bHsooh4bPA9G+Pjjj8sNN9xgBx39/f1y7do1O9RQBHt+KNR7aho1rXpNfXb16tXF0KQaqkfWmkIM5e893CP/OBCMvP3+b+11Xf3mMd/rumqepmXh3DIthB+ZWRp+GHtpXLROwMHK3IwEC2lO/ONWRXwm17G8Xo+YBmm8o026tvdL/64e2fhoiyy5qVFW7sphg8G2dsKP5qfUNvc7ctb8uUqkgj6LXhySdV8vbHvCj1Izve1lLqn9ij7/9hbp7Cmcv9vv8BoCSza5oemk9D/ivj5fmtf3BaZdIhuPpJvv4JqF0viVJmnrVvO0pt2+UZZ9y5s2dq+bwxudIGWBtLQ456t51vm5xm9Z4twaMCT8GLW2k9tLd6FVB6rkNs7kct7I1hrbngfWycKbltg9lvsGRmTsyJD0rFlSLG9xr7s333xz4Ts5qjBj+fLlMjAwYJ2TvPqyCkLUa+o9NY3+mVtuuaWq4ccX23uNAYZJ1fvDZYH1b9M0SjVP07JwbpkWwo/M1BqnTU1O139DxXj/Olmg3vt6i7S405uChYlR6VtvNei/4lTI5t0iSx7slL4j5sb95JE+X9dg1X1uUXOb9Bxwb8vQTvwt22R0uEtW3nFL4UTrzLt/TJvn+JB0LVe/SDqf0QyelCeHe6TN19XYOqEbug+7DYYFHUOF+a/wd2Ve11/+ZO/dcrJINh4OvK+Wpy0zsoI3MSI9qttzYPv2l23IhM+3+Lq1fcfVrTlPNFsXt8J0apus7DZ01TZ5cVyGulcW972qzG/cMy79xQaXIfyI+X2K67iiz16X0R53OdGNuPiV5bAKhvt6oYvw+AGt/FkNm4XN6/zlzzJ0mcZuyAWDx0GhLJq60/vXZ6y/U1pud345VttuRZeMqM9Y29Urp41yyx1WwypYTk90Oce7ukVtUkZ62qTJ3Q+qG+sTzrEw1i/rmhfa94kXvrN1fA4bjueS27qcaYvHsmvybRp5y5g77QlrPUN+Rffth7jrWdw+loFzXWS5Sjz/ldKnfrE/0lPcDvq5Ku55Ks4xEhp+6D0Vir/ehR0TlmdH7PP80m+5+02tl/o1uadQ/rRpK1qvsHXwlV1rGbvWSbO7vfXjoDgfZaGMN2vrHDSy4n5sm3T2BHqFWdttqft5t4yMb5MW9zW9R9+w13PDvpYU5xFzvsrAtcJWux01bsOjeMuLCjwOb5Ql9ucbjefI4v5Lcn2wzhmdDy4tTleqdy2YPBb/Vh7fcdc/LoPr3XVR57iV0jXT56Wg+jnDoLd/Io6tqFtZghqmnbReW+i8puYd7N0Rdqylquf4yoO1D+5ps+p6o1qdMvDdLJPWu+yeyFbdwtvXbtnJYH9Z+sq3XR9pMn7vsX7tHOPc5lFyjlG3sA102d/PK/vWutxluP46Zl4Hdk18HUpwLg2eg872SLM9D2t/ron3g+Of/umfOuuVXjWP4eFh4/yz8PdX9BgDjKDNvcNy3em18oO+w8ZpXNU8TcvCuWVaCD8yUws/HtsoG28v/Dt40R3qKHQlX/BEjzZ94CSnN+5KXGhVrPwVE99F2qfeE0KvJDSZuxJr3X31ylFQ/TuFL9sy0HWvWFlYbC3f+P0WSnuZrt7u9rO/2/Zgpcuvr4IX1ngusXT7Bg2br/e69f2Mt+b4u82GOdSx0PDZhbLk9lucf3sVXtsE36e4jl9fJz3Wv73GS7Cx5Dd0W5aolzNT+GFVwu5pMpeZQHdz4zIDwcdGrZKepCzGWZ9GqwK60jmO/S60K4nFeWkV9SZrXt429Vz4SJu0mI65eVZFSe81E3lbl1V+uvXGXdJtOi7bWsLmbVV8nbEKvEp9qcX9kGQ99YZM3PAj1fyt79Bj/VvbzsaGTNBA2YhzjBgbPr7gY6X0FSvSYceE1dBwbys0GXY8JF0v25B1iFF2G+/p8a2zfn6af+siWbTYDfQs7UaEahhEn0NLNJWRPe3F9Vn6M3O5NzUKfUaUvRK15cUby8nrHVUIpLxbYBof6S8JMryyHvP6cHabd86wtuuixda2dkNVS9WgXLm+r/j93dvUTAb3obcui6x1MVxvAqFydc9LBvX9ZtCrg0SUBeuYL50+xOC0E32ysrjtA9vCMexYS17PCTkvz1siS9xbqgLfLVW9q6VLtj2m72u3HpHB/rIsX74XyspHW8znGBWY6PPTeh6WGjhOLKtRB7ZNeZ2Ley4N6vU0it+L+dKlS/LKK6/IPffcI3/2Z39Wssww1bTqM+qzah5Xrlwxzj8LTeFFUL3Hx10/P2CcJqhpWTi3TAvhR2bq4ceg94uQ76TuntBVQ0M7ufsqZXpX30ZZsqZHho6MylBPuywpXoytirV7cZvs9y7S1sVl2aZ+GTkyIoM9G2Xlg4XxQgrz1U78lo13tEvP/lEZO9wjK7UL9Mo+54Q7OS7jBzZ6v5o90lcY/FAfAFFfdpO1LKcRN77LuxB5XY31yoKldWFv7xmS0RMj0vOIdkF2ftV0P1Oi6iroTmttn0XLN8qgr5Lv6V2M9YaVvn2bpHO/U8k92+81qm/fKKPafIKa5+t/vbgvTozKYId2ISw3YK2W/Kv7/tu6B2VwoN/XHdIffiT7Pv51tHQaK+2P9kSuV8nnfOrrE1YZTVj+LEu2s68istB6Tasc6GXRLVuBbqSNvrIVWJ971kn/4TEZ3aUdZ0p7H6h5DcrGh7xy6vvFOVBRX/hIl3XMjslQ9zJ/heymZuncNSKjh/t83fH1htbopiXO6wtk5bZRmVTH7+SI972tY7+/WDlLuE0Dv6SPTkzK5Ph44Re2FV1emZ+wjvHtK4ufX/rMUPHYt9cn6XpGNEDDjqXU87ct9NBpW2M1wofV55Kdp+IcIyUNn4jeSOHHhKVVyd+4otPeb+Pj1v6YGJN+rYGil41U6+W8HroOwbL70MbCcTCwTmscaL3stAFZGx7yjqeRZ9z9FVxuPL3v5lX69Vsc9fNCklsATfM1OWkd3+ucsuWOs2Wazqd1LbJ7cWrrVwznfcdpQf/+K3998AZSXSSdqhyr17VGeWMwzDm7Tdof67L337h9bGvHi6pzaIGtb13U+XK76nbvP8fpAU5Vz0sm3cGWXcf6pO0W57PWsor1n6hjK3X4MaiN8xG4zmiGHWuJ6zlub2ClukZsV9f8Pt++8H23SupdStXbYkW7tD/V78wzg/1lGSzfK9V188SQdOnfw3L+9zqtMjoqI9v1a22ht4Q+v/Ft7da1Vx0j1nVn0ioPw9a5yp1eH0y9WnVgy0quQ2XPpbqqd4lWV0lyi9Unn3xij+GhKBeEBAMPhfqsmodp3lkZp+fHzw6dsdfn0TdGje8HpecHKtNC+JGZWoVMpbvFipHTFVtN475m3xOsnYj1SoxeuQw0wvVfCd1K8WSf10hZ9JR5gNWC+om/WXq0X5v1efgqCRGNFqX+ubZ+/T31S4bzOe2irV+Em3u8Sr3vOwcrMAb1+3ALzre7FAZHyNYvxsWGlb6sR/t903uV7egKvHG+gdf9g97pg+JFV9b1Cv8S34C5o8XeRL55JPw+vgpKSW+IcP0Vm6D6dwqrjCYvf94yVcV90io/biUq+Eujfx56xc83bo2vghW+Pv2Puq8Hjim9C70eaurHiaqUFStbo9K11Hndctl2rfLY71W2vSBFKydLtTBCqTW0vDKXcJvq4cety6SrpLu6ZmTDIeF6RpxHzMdSBfM3NFaSnqfiHCPeuUz13IkI5WzDjokQi+NIhB0PlmXXK0X44Su7/qeYmLa1r1xo5cXbjzHVe8xY17wRZx3MZUMZM/wImW9RbZ1tw7rgh+j1QtTOK8XyWRq26N8nzvXB25f6d9S+e4yy5Cv72jbU18U3MLv+i3tx7JIqn5di6PU2srarrxEecWylDD8W3LrQq198vU36Q8pD2LGWtJ7j682qfzdfyOFNn/R8pq9P4z3W/gseBxntr9DyrV83G5ZpwZV+rfWHc2YnpW+FO713TOjrmG0duILrUJxzqevF0cIg1/b786V5U8zbowOqMOPTTz+1BzS9ePFiyVggSvWaCpLUNGpa9RnTvLI2zpgf33phr/z16+/IDU/3G98PypgfqEwL4UdmBiolWiXCvaC5J8DCLzbaiVhvEGgn1ZLAQasUu+95F07DSdWntrxg74OwSkJEo0Wpn9DDNVXmgul3RAUmRHVfqj5Ane1N1gVN+8XVWHnWt2GEUdsyrFKuv+6voMX/pVKvCLXv8b9nrAwn/D76OiZ5TK/+udIBT0e03k1h+zJ5+fOW2SSdz6wsVkgXPOr9IukadRyYKx7h6xO2f6cu9pu/m36cBHouhVWQfRVC99jSK8cRetso6TYt7V49/6426RrQjvnIzzsmXc+I84hxW1cy/2D3acuk56k4x4h+LG4s9nqw1sl3e4ZrxPltfET6Nq20nxphGtdB3/bJ1itF+BEou+Z9ozXIjD0/Qn7ZDHNc66EW6DETehzGOZ9GzLeoVsZdC4/RHZLxkgZiQD0k0Mcj0V4P3vqif5841wfvV2dzz4+SXpLq8b1rWmSpVZaK4x5o6tswfNvqDUynDFX9vFRGq07k9mjw995TRhxbSZZlKAuuvqcKaYYda97rceo5WmBhzafHN+aEOehKX+8KCxiy2V/h5Tt8H43+bGnxM/5yaM1voEvaH1wqi4xjC3nfr2p14EquQ3HOpa7F2+0WSFu/vt2S+/HHH9vtm7/6q78qLi/od77zHTv8qOYAp0Gjnvbi+k8e3So3bviV/O7DLxvfD8rTXlCZFsKPzCy9ULmPtC2EHW6K7A6Gpp2I9QZB1MXG0IgIr+wGDb8AhS4zotGi9JbdKLd8S937bbLTcBEOrmvEupVxbMA/Sr9eETVecLTvqgYWNK+zVdkMBA+6YRey8Atc/PAjan96FQVtHgm/T+RFOML4nwvbl8nLn75Mn4b7j6O2m3ndw9cn/LuGfCbiOAldL9Nn9NfUYG2G/ahcttXdRsm3qT2Aq2Eg4/nqNhi9wRf2eWXS9YzYPsZtneH8lUnPU3HKujdPv+Z7ukP209ltskwLPOzxM5pXSvsjTcUAPOx4KL9eMc+xSfeNpd7zLjjmx/yHSsOnUCPG71Gmvu2lzHyLFm+tGJORgR7fIL8L9dvaTOq3KoSq9fq0DN9/Id/H9z0CY37Ms87pekP2QKcsKgYehXK+VN0S9aAXzOnLjCpLJWUo6fGY5rwUpgqTittAv93FNaNladMWesX1e8ttCIzx5Bh2rCU7BqPLcrFnhPbdvPlXWu9yzWYbhpep8PmHfWZovXaNssv+Uml5tF1aDL1fy38/14TfM8PrUNTx5r1nOJclUPXiuH79unR3dxeXpVy2bJn9SFv9taefftoOQGaq58drR8/IHwUeZxv0rfMX7bbZE3tPGN/XVfNS8zQtC+eWaSH8yMzS8KPYlU51Hx12fqEv3iOonYj1E6Whd0fUe97TT0pPqn5TXODKNCq8xD1Ol8WklYIETvRLm/srnHYBMV5wtJ41vnEbEhh2IQu/wMUPPxL3/Ej4faIuwlHG/1zYvkxe/vRl2vfyLvcaXcF7Ys29O6LeC1+f8O8a8pmI4yS0zJs+o9+WYujBUGrybeqqngyxMRCC+G4Xivp80vWM2D7GfZPh/JVJz1Nxyrq3Xy3nLZFlD7mNzNJbssL2k/7dm/Rtr32fsOOh/HoFypv+K2bMshu+vHHpW+4OvqxUjbCYPSZcrYZ9uxtahwUUcQY8DXZHjzPfMPVtpI8pYDBqcFFdPbQJ354R14fDnc4TZBytRtjSkqd46b01FkjbrnHvPe041pfpW5ewWyfcMjSD56Wg4be7uIYvK8ktG6b1UoNoFgMua95Jn/YSr56TvOdHdvUu12z2V3j5Dp+/8TO+47BN+rXbmb3v4h0nVasDZ3gdCt822anG7jh9+rT8+Z//eXFZX/va1+weHkr1b/f1L33pS3L48GH57LPPjPOqho3rdxqDDOXfs5z+7LrdNtt9etI4ja6al2kZOPdMC+FHZhouVMWT+AJpuqdQOfa6wmonYv1EqXcrjhjzwx3tWv91zHi/Y/GCneICV6ZRoVcu/ONTmE1WKTA5KaOHnUGnfK/r4zqUCT/0C6vpPvAYhl3Iwi9w8cMP35gfvrErQuaR8PukvQjH/1zYvkxe/vRlFsbL0G/b8I+tMLnLuy0mfMwPvXIZvj7h3zXkMxHHSWiZN35Gu8fY+Ctn0OTbNOik1cA0hq2Rn0+4nvp39XUH1veNvq0rmH8G56k4Zd3br84tCb5fqK19HWPAU28eS33ThzXakq6Xr8u93lMhZtkNW97Yi4UQsmTAzbhOWNvKHfA3cKuiT/3cFvKoW9/jIOPON+wc6Rtsuj38PK3f8rK4TXp8twBabl/nbVOt0RS+/8LO7YPSbpepsEarq//z/dr3CwuF9XXxjc+g1z9MY37M0HnJVr/dJbTxqS0rcCuDHlCVXZZxvVSo5F5vSp8wEnZuDz3nh2wX/QcP3zgxalw4d19o02dX73LNZn+Fl+/w+Rs/o5+TfOOYaeVQO06qVwfO7joUvm0c1SDjgd6sSVQDll69elX+4i/+orgc9fjakZER+3Wl+rf+WNyvfvWrdiiixv4wzTNr3zxx3hhkuH5t84A8d+iM/KuOHcb3ddW8TMvAuWdaCD8y0xB++FL9gt6vF9qJOHCi9C7a7tNexvwjY+uPx9QrbOrX8U19MjgwaFXAuqS9ZZG0F0+0KS5wevJ960rpOTwmY4cHpWfAaVxalTOvx8VCWdkzImPO6Oxjh/ul67Glsk470SetFJTqbOOb1GjlG51KZ5+9nOKjFsvd9mJVaAYf8ypFCx/psUcTt7s/nxiR/u42WfpEdKU+7EIWfoELqdya9FXAnVH4rfXqi3jaS5LvU/YiHKL+udIxP/plpDh4WNi+TF7+jOuqP/5RH4xOb5BoI+zr281fgQ5fn/BtFPKZiEpPaJkP+Yy+bPUEmsEjzr48q5741Ckty/XbKhJu0xM90qaOG+fJIuq18YF1xV+WfQ1JrUeRux6j+/ukzxkkNdF66o1Y9zxRUqbDj6Wy84/Y/rYJz1Ph+9/TuF+1xpraH94vxeb95DV6rH2kBrmzpp88Ym2rYnf7GMdDQL2xW9xv6tZAbZ5xy27Y8orfvanwhKTCfilYGkwHnLAaFMXBYW+RFut6FTyX9O8alFG7IaA/yWq+NK9X0/ZoT0paUHw8c5L5qu91yz0rZWNPvwyq9bfK4qB1vWzTnsBkelRtUS1IMve208/33mCo4fsv5PpQ3DcLZOXPrPOZtp3d47egXs9YIG191jF6cVLG9m/UnjIRfnx59Yb+0Ke96NNnfl4yqYeJ1jG28bD23ZXFhqjeIG6Upg5rH1vrNLjJ/6StyGUpw9bLOmcWt2HgseRh5/bE9Rw9mLx1mWy06lfjgSfv+KbPrN7lmsH+sgwv3+HzN35Gr3da1/g+tc0nx2ToGX2ge+04qWIdOFG5T3Eutd9zwuSSW9kSqG5f6ejoKC5DuX79+uKtLUr1787OTt80q1atmrFbX5Q/HTwqf7BqizHQiKP6rJqHad44N00L4UdmmsIP/0nPfw+wdiIOVtj1rrslWif3bf6LUOnTTzy9E22aC5z+S7umtr6TA+3avcal6if6xJWCEvVKosHAL66hF5zI7WtpakBphs03/AKXIPxQYcYardLjan23ZS1uYykwjwTfJ+oiHKW/HJfqzStsX1ZW8dDXVf3S45Z3PdCILItWpXJbzDIXvo1CPhNR6Qkt82Gf8Y38brCSbaovM+i8pf6eAr7Gh2dxXonWM6RMWy68p6n4K75vWyeZf8T2d01ynopzjITtV6+bvj5uRMh+0sMSzcY7lkmL06CLczz41Btrutb5o8lwfUpTYVe9hUzrbWtV4Jdt1XteBdTKZbjaNg2Mi6Lru/UtwXz172W0zFOw3LG8VGM7bD/oIZQ7OG34/gu7Poxpj1wtdf5dnTLkrKd+TtRd+NCy4v7Vl+mty0JZZLp2BHsvVfO8ZFA1CIvzNqmV1WLjMWCjdW5xv3vUsmwj1mv0Z9666AOuhp0DktdzQvazdc1aZjpmLbOpd7lWvr+U4eU7fP7mz4TUO1Xd9yF3en8dqGp14IyuQ+HbRt8/McpphBcuXLAfY6vm85d/+Zf2+B/6oKbq3+o19Z6a5q677pJz58755jETqvDCFGzEkeADg6aF8CMzzeGH74QY9suzqcKunvu9vkWWFAc4u0UWNbdJT8jjKcd2dUrLXd7Ac3bvCN9j+1Je4MYHpbNZG9Du1qXS0hOo3KpR5h9r9gZjc6db439sYPJKQanjh/tk4wprWbd6FyQ10Kf6rrEedetqbd/B7jZp1kcSt++nbpeeMveJh803fHlJwg/Li+MyuMna93alv1FuuWOldKl1Kv4ab5hHzO8TuU0i1D9n0ptX2L5MXv7C11WvHAW6I5/ol84HlxSfdhBWNqLWJ3y5IZ+JqPSElvmoBru1/0e2B45n+/hfKRv79eMz4TadHJFt6mkQ2rFTKCPBMQQcj/TIyjvc8lQY12HdgHb+ib2ealrrfPZEc/GJJo1fWSIru9UYEV6PnZLyGHf+UdtSN+Z5Ks4xErpffaHRQmnfo469iLLWv06a3f2hnbPdxnO848Hv5HCXtt/my8Lmdfb+LXYPj1l2jctzr0shgUTBsEaWpVYuww18fnxIulZ4x7TxiSxJ5jvmPhVFK1dqOy225ts9KGNRvVf0WxECA5r61HpOub0Rw/ef+fowOdwjbfeYnnTh6d16NCkj3SuL9QV1fLWs77e+izceiL7M4rqosuA7Nq3j/J426TviTVu0Wuclg/q2Muorq/7vbh9HT6jv7vWIiVqWbdR6GY/p8HNAqnqO1cjue6zJKePOMTsWcsy6Vlzvcq18fynDy3fE+S/sM2pg7uIxr+pALdKpylixF2FpHahqdeAMrkPh28YLshq/0iI9xv0TX9WLY8OGDXaoceXKlZL3p6en5fz583YPkOB7M6m6bUWN2/GHZQZBVapp1LTc6oIm00L4gYiIiGUt9my5tU36tVsA7Nss+rwBIoMVfExo8fa+Rmn6WeGWqOJ76hafkB4BiIj1onpii3pk7Rfbe+X3V/QUAw/1b/Waeo+numCUaSH8QERExDJ6vXSMvwJrv3wSflSmN4ijuadg8dd8wg9ERJyjpoXwAxEREcs4Kl1LC43uxnsCj/6cHJW+R5xeIfPcx7ljavvdbvgLpa1fu9XMclwbyNT/ZCtERMS5Y1oIPxAREbGs/oE11TgZi3zjL6kBT9u1R1BjSgMDDquxixZZ29od90Q5/3s9/gAKERFxDpkWwg9ERESM5dieLmlr1hviajDcwkCLQ/o4IFiZE6PSt750gGJ7oMVdo+UfK4yIiJhj00L4gYiIiIiIiIh1YVoIPxARERERERGxLkwL4QciIiIiIiIi1oVpIfxARERERERExLowLYQfiIiIiIiIiFgXpoXwAxERERERERHrwrQQfiAiIiIiIiJiXZgWwg9ERERERERErAvTQviBiIiIiIiIiHVhWgg/EBEREREREbEuTAvhByIiIiIiIiLWhWkh/EBERERERETEujAthB+IiIiIiIiIWBemZc6GHwAAAAAAAAAwNyD8AAAAAAAAAIBcw20viIiIiIiIiFgXpoXwAxERERERERHrwrQQfiAiIiIiIiJiXZgWwg9ERERERERErAvTQviBiIiIiIiIiHVhWgg/EBEREREREbEuTAvhByIiIiIiIiLWhWkh/EBERERERETEujAthB+IiIiIiIiIWBemhfADEREREREREevCtBB+ICIiIiIiImJdmBbCD0RERERERESsC9NC+IGIiIiIiIiIdWFaCD8QERERERERsS5MC+EHIiIiIiIiItaFaSH8mCEPHjwomzdvlkceeUQeeOABaW1tlR//+Mfy6quvyrlz54yfQURERERERETPtBB+VNn3339fnn32WWlpaZEXX3xRhoeH5cyZM3Ly5EkZGBiQjo4OOwzZuXOn8fN14YkeaVm8UradNbyHiIiIiIiImJFpIfyooir4UL07Ojs75cKFC86SSxkaGpIf/OAHdi8Q03yyc1DaGhqk4dZ1MnTR9P6YdDU1SFP3mOG9CIc7ZeG8pdJ1xPAeIiIiIiIiYkamhfCjiqoeHyr4iMOxY8fs3iF79+41zisbnfDDcmHHkOH9lOEHIiIiIiIi4gyYFsKPKqnG+FBhRlSPjyA7duyQxx9/3Di/bFThR5N0/qxNFjQskY2Hg+8TfiAiIiIiImLtmhbCjyqpBjdVY3wkYXp62r79RY0LYppn5arwo1Ha90xK34pGabh9o4z4bn8JCT9O9Mu65oUyX/UamXeLLFnRJUPj+vtd0tTQJF0n3NcKIUvXsTHpf6JZFt5U6G0y/9ZmWddPsIKIiIiIiIjpTAvhR5VUT3VRIUZS1G0yvb29xnlWbuG2l7YB698TfbJyXoMseWZEe98QfhzrkqZ5jbJkTb+Mnh2X8RND0vXQQv+4Icbwo0EWfH2JLNs0WPjc2VEZ7GiSRtXjhLFBEBERERERMYVpIfyokuoJLuqpLklRvUWef/554zwrVws/rL8n+1YWwoji7S/B8GNS+h9plIbv9ch4cR6WE32yzJpPy9bxwt9h4ccTwXFFRmTjYm6rQURERERExHSmhfCjSra2ttqPs01KV1eXvPTSS8Z5Vq4//JiaGpdtLY3S0NQlo3YvjmD4MSjt80xhRWG6xjWDhb9Dwo+VfZPO364ht9UgIiIiIiIixjAthB9VUj3idmBgwFlafNTnfvnLXxrnWbnB8MPy7DZpUQHHz0atv0vDDzW9Gq/D6GPR4YdvObaEH4iIiIiIiJjetBB+VMlXX31VOjo6nKXF4+zZs/YTYsbGqhUOmEOJ8a0t0mgPUDpq7PnR0jMq4/a4HQEnnHkQfiAiIiIiIuIMmBbCjyp57tw5e9yPoaEhZ4nleeaZZ+ynxJjml41hoYR7+8s6Wfc9PZwojPnRuKJPJn3TByT8QERERERExBkwLYQfVXTnzp32o2uPHTvmLDUc1VNkxYoVdu8P07yyMSyUsDzRI03zCrez+MIJ52kvi5ZvlMEjhR4fY4cHpWfTSuna436W8AMRERERERGrb1oIP6qsCjXUrSw7duyQ6elpZ+keKuxQPT5U8HH48GHjPLIzIvywHHtRPYrWEE6M9Uvng0vkFiccabhpoSx9sFMGzzrvE34gIiIiIiLiDJgWwo8ZcO/evfL444/bvUA6Ozvtx9mqp7qowU1VMKJudalujw9ERERERETE+jcthB8z6PDwsPT29srzzz9vP85WPdWleoObIiIiIiIiIubLtBB+ICIiIiIiImJdmBbCD0RERERERESsC9NC+IGIiIiIiIiIdWFaCD8QERERERERsS5MC+EHIiIiIiIiItaFaSH8QERERERERMS6MC2EH4iIiIiIiIhYF6aF8AMRERERERER68K0EH4gIiIiIiIiYl2YFsIPRERERERERKwL00L4gYiIiIiIiIh1YVoIPxARERERERGxLkwL4QciIiIiIiIi1oVpIfxARERERERExLowLXM2/AAAAAAAAACAuQHhBwAAAAAAAADkGm57QURERERERMS6MC2EH4iIiIiIiIhYF6aF8AMRERERERER68K0EH4gIiIiIiIiYl2YFsIPRERERERERKwL00L4gYiIiIiIiIh1YVoIPxARERERERGxLkwL4QciIiIiIiIi1oVpIfxARERERERExLowLYQfiIiIiIiIiFgXpoXwAxERERERERHrwrQQfiAiIiIiIiJiXZgWwg9ERERERERErAvTQviBiIiIiIiIiHVhWgg/EBEREREREbEuTAvhxwx58OBB2bx5szzyyCPywAMPSGtrq/z4xz+WV199Vc6dO2f8DCIiIiIiIiJ6poXwo8q+//778uyzz0pLS4u8+OKLMjw8LGfOnJGTJ0/KwMCAdHR02GHIzp07jZ9HRERERERExIJpIfyooir4UL07Ojs75cKFC86SSxkaGpIf/OAHdi8Q03wy80SXNDU0SNuA4T1ERERERETEGjcthB9VVPX4UMFHHI4dO2b3Dtm7d69xXplI+IGIiIiIiIh1bFoIP6qkGuNDhRlRPT6C7NixQx5//HHj/DKR8AMRERERERHr2LQQflRJNbipGuMjCdPT0/btL2pcENM8K9YUfkyMSM+aFll663xpsN5rmHeLLFnRJSMT2jSIiIiIiIiINWBaCD+qpHqqiwoxkqJuk+nt7TXOs2JN4cd4n6x7rEv6D4/J+NlxGdvfJS1fb5AFTwz5P4uIiIiIiIg4y6aF8KNKqie4qKe6JEX1Fnn++eeN86zYmLe9jDyzSBqaumTM8B4iIiIiIiLibJkWwo8q2draaj/ONildXV3y0ksvGedZsTHDj7HuJsIPRERERERErDnTQvhRJdUjbgcGBpylxUd97pe//KVxnhVrvO1lqDDmx+JFcsu8hsK4H0rCD0RERERERKwx00L4USVfffVV6ejocJYWj7Nnz9pPiBkbGzPOs2KD4cfZbdIyr0EWPtIjIyfGZfJi4XV6fiAiIiIiImItmhbCjyp57tw5e9yPoaEhZ4nleeaZZ+ynxJjml4nB8GOgTRoaVkrfpDaN5dATCwg/EBERERERseZMC+FHFd25c6f96Npjx445Sw1H9RRZsWKF3fvDNK9MDIYfRzbKkoZGaXpmSMbOjsv42VEZ3LRMFs1rJPxARERERETEmjMthB9VVoUa6laWHTt2yPT0tLN0DxV2qB4fKvg4fPiwcR6ZaRjzY3TrSlnylcbCOB83LZTmJ/plbHijLCL8QERERERExBozLYQfM+DevXvl8ccft3uBdHZ22o+zVU91UYObqmBE3epS1R4frse6ZGnDAll3wPAeIiIiIiIiYo2bFsKPGXR4eFh6e3vl+eeftx9nq57qUrXBTYuOy8j+URk/MigbH1ooDbeukyFnYFNERERERETEejIthB+5d1DW3aQeX9sot9yxUrYdM02DiIiIiIiIWPumhfADEREREREREevCtBB+ICIiIiIiImJdmBbCD0RERERERESsC9NC+IGIiIiIiIiIdWFaCD8QERERERERsS5MC+EHIiIiIiIiItaFaSH8QERERERERMS6MC2EH4iIiIiIiIhYF6aF8AMRERERERER68K0EH4gIiIiIiIiYl2YFsIPRERERERERKwL00L4gYiIiIiIiIh1YVoIPxARERERERGxLkzLnA0/AAAAAAAAAGBuQPgBAAAAAAAAALmG8AMAAAAAAAAAcg3hBwAAAAAAAADkGsIPAAAAAAAAAMg1hB8AAAAAAAAAkGsIPwAAAAAAAAAg1xB+AAAAAAAAAECuIfwAAAAAAAAAgFxD+AEAAAAAAAAAuYbwAwAAAAAAAAByDeEHAAAAAAAAAOQawg8AAAAAAAAAyDWEHwAAAAAAAACQawg/AAAAAAAAACDXEH4AAAAAAAAAQK4h/AAAAAAAAACAXEP4AQAAAAAAAAC5hvADAAAAAAAAAHIN4QcAAAAAAAAA5BrCDwAAAAAAAADINYQfAAAAAAAAAJBrCD8AAAAAAAAAINcQfgAAAAAAAABAriH8AAAAAAAAAIBcQ/gBAAAAAAAAALmG8AMAAAAAAAAAcg3hBwAAAAAAAADkGsIPAAAAAAAAAMg1hB8AAAAAAAAAkGsIPwAAAAAAAAAg1xB+AAAAAAAAAECuIfwAAAAAAAAAgFxD+AEAAAAAAAAAuYbwAwAAAAAAAAByDeEHAAAAAAAAAOQawg8AAAAAAAAAyDWEHwAAAAAAAACQa+Zs+DE1NYWIiIiIiIiIdWRaCD8QERERERERsS5MC+EHIiIiIiIiItaFaSH8QERERERERMS6MC2EH4iIiIiIiIhYF6aF8AMRERERERER68K0EH4gIiIiIiIiYl2YFsIPRERERERERKwL00L4gYiIiIiIiIh1YVoIPxARERERERGxLkwL4QciIiIiIiIi1oVpIfxARERERERExLowLYQfiIiIiIiIiFgXpoXwAxERERERERHrwrQQfiAiIiIiIiJiXZgWwg9ERERERERErAvTQviBiIiIiIiIiHVhWgg/EBERERFn2NeOnpGlPfvki+298vsreuR3lr9k/1/9rV5X75s+h4g4100L4QciIiIi5sqPP/5Yjh49Knv37rVV/7506ZJx2pn2zRPnpXH9TvnDR16xA48wVRDyp/9xhz29aT6IiHPVtBB+ICIiImKuvH79urS2tkpDQ4PtQw89ZL9mmnYm/emeUWPQUU71OdP8EBHnomkh/EBERETEXFmL4YcKMP5g1RZjuFHO33v4ZQIQRETHtBB+ICIiImKuVEHHD3/4w5oJP9StK6ZQ43cfflm+/eI+eWLvCXl19DeyefiM/NttB0NvieEWGEREwo/EmDZivTj4WOFC3tDQJF0nzNPUj2PS87351ndplEVPDMqkcZp0jvU0y3xrOzV+a50MTpqnwSo6OSjrvtVo7dv50twzZp6mEi+OydCufhk8PF74e3xEBq2/h8YC082o1SvPya2ldZkJ59r3xeo7N8tU8jrGoLQ5AUNDU5eMGaeprmp8j+BrKuh48MEHne8SHn6YPlsN1RgfpjBj18n3nZqpn3c/uCR//KOtJdP/90/8n8b5IyLOJdNC+JGZY9LV5FYY2mTQMM1Yd1PxItw2UPp+XOsm/DjRL50PLpWFN7nrO18W3tUi7d2DMuqGEWM90uRsk4avr5Oh4DxSa1Va73GXu0DWHTBNU6Fnh6RnTYssvVVVjt3vt1I27jE09C+Oy1BPmzS70867RZY82Cn9hob6+P4eade3200LZemKjTIYnNZq7Pett5b/rVuk0V5+gzR+ZZE0P9YjQ+OBaU0OtDnrHdBa3qJm63tsH5Hxi4bPxXVPe3G9Glq2ybj+3sVJGT87LuMT2msJHXvRPZ7U8TYpfSucZd3TMyuVb9uqlecU1tK6pFA/X3o2yi3fWiot6/tkJFjGZ+H7To5bZfjspPG9qnvRanDOc77v4o0yYppGvy7NWyn91QqBMziea9I6P4bSmnX4EXqcnLWuYZtWSvPihfYPFerzjV9ZYh3f/TKW4NozMTEh09PT8vnnn9v/v3z5sv26CjrCbntR0+ifef/9933zzFr11JY/CunJ8W9e2icTH1+Rf7/rHfn6cwNy+8v75dNrn9l11X+37dcl06ueIjwFBhHnumkh/MhMwg+fx7qkya2YG2zucX6ttxqtQ+ubZdHiZmnbnu29rJP7O61KlQoD+mS0kka8wdGty2RR6PdrlKZu/btMWvtsoWE6y3lN0uPuw4ujsm35Ii8wCGpN23XMmXa8T5ZFbF/ffMMMCz80Fz5Wwa+d6vusWCqL7mqRjfv9Fd/xnubCMqz5668ncXLPOnsfzP9eIewo9PSZ7V9oq1eek1tL65Jcc/iheVNzoIzP8Pc92yPN9rqYz/cz4eBjqmeVWoclsvGIYZoT1nnY2V6Nj/RX7bjI4niuTev7GEprpuFH6HEyIp23ussptfGerljXbfX0lscff1xuuOEGO+jo7++Xa9eu2aGGItjzQ6HeU9OoadVr6rOrV682zj8r1WNrgyGG6+893CP/OBCMvP3+b+11Xf3mMd/rrmp+puUgIs4V00L4kZmEH57jsq3FXcdGWfJol/Tt6pf+no3S9uASmV/NXyBnyFFrX9ohxbxbpOmxwvfr27RMFjr71/cr65GNssR5vfFbbdIVmLbYKLk4Kl33FBozjV9pkrbuPunf1ScbH/KCE70Bo3o+NN6kfiXrsaaztu+uHll3l9sLxZp2TZmGiBZ+LHrUnUe/9FiV/eL3aFgkGw8bPluR49LzPWf+uWssYVbq58vmpwpls7+nU1rsW6kKrzfOYvkpNvhnMfxQx7AbljZ1l/Y489axQVb2VauHCsdz3swy/Ig6Tsa3tsh861q3cpN1/dk/KmOH+7XrXWOsepK6ZeXmm292PlNQhRnLly+XgYEBaWlpKb6ughD1mnpPTaN/5pZbbjHOPyu/2N5rDDFMqt4fLgusf5umUfMzLQcRca6YFsKPzKws/Jg8NihdjzXLouItFA0y/1bVvbu0+6evYnJkVHpWLJFb7F4A82Vh8zrjrRRqfIR+dYuEfotGc5v0HHB7YDgWfylskW3j1jrvWue/VWNFl4yU7do8KO1urwRTd2zf9ynTXXa4R9qaFznfT4UC8bvEmitw7vIKt8KMH+iSlXe4t41EbL8SJ2Vw00YZDHS973+0dJlDHQuc16xl7nennZS+h9xpC9vafn1iUDZuGvTfbnKxP3wbBbeD9ktv2YaIFn4EG05DT7jrbAjqEpclbV3Gh6QrpHeLtw7uPnKCl/FB6Wx2ukW787k4LiPbrYbwXV7ZUOVzkVqPYUMjbyx4C1ZQ/zE71q/m7XXFnn9rs7T1DMW4DSisPGdV7izjbv+wdUl7jE+MSI86R33FCR/cW7eCjaNMziER58uJPlnmvN6wtEtGi58J2/YFY+/T4Pe0b7VpthpofTKq1lvdwtYd0vMrsNy456/id13RZ4eboz0rZYm9/DKNT/3Wl+/1+G8t84XQK6VPD5wTH8PO54/0FMutfbzGOZ7LzcNen2THc3C7lmjY/z5n5RialBF166N2m2JQ33k4zvFWXA+z+vzS1TGs73dsRLqKdQzrWLijRTr7tfW0NWynOMeJWm7w+Nu/Tm5xpmt6MbicUg8cOCB/+qd/WrqMhKp5mOaflb+/oscYYgRt7h2W606vlR/0HTZOo1TzMy0HEXGumBbCj8ysLPzQG5tBGwNjGOiN+ianp4DPW63l6xUvrUdBqYFbNLTKVNM9Tu+GgMH1KXVI1n3dmX6eVeENBAR+wxssk1bj3OuBEDD4HQ1Ghx8Nssj6fsb539qeeoDU0mXqY4+0Sb9W0YsqD37Dt1GJ2j3qCzqGzNO4RoQfI88sKr7nW7eUZckNLfTvHNRbB+/7tvxsm7TpXaPd8KPYldrkQmnfozWYzm6TFr1BtXiR1rAtNIJXru8rbtdirx6D5btih+2rjMpdku0fti5pjvEJa16hXdQXWmVE296ZnEMijg89DPSFq2HbPsE+vWidu0K/Z7P0nLWmiWpwastNcv4qftevr5Me37qWCT8svVtftBBVOdknK935OKGK/XqqY3iBrOux/q01ZNXxGut4LjMPe5okx/OBdd52VeMTWcezF2oWGudtLw6F3+IzS8fQUIfXg2/+rdY5SBvnohBsqPDF+Z5xj7eosmipn9czrWME94lpO8U8Tvzqt4iG3MoV8MqVK/atL6+88orcc8898md/9mf+ZUWoplWfUZ9V8zDNPytNAUZQvcfHXT8/YJxG17QcRMS5YloIPzJTDz/KW9LYtRpo7Y91Sf/hMRmfmJTJ8RGtglb4tdid1quYWN66TDYOqO6ifdJ+h1dJWbLJq8CNblrivL5AVm4blUlV0Z/U5q/fohGosCx8aKO9TqMD67RKa/lbIfSKXsO8RbJs02BIb42QyuVkv6x0l9fUKUOq0WG9Pr7La1Do39FkufBD2XhHu/TY3W17ZKVW2UzVRXzSmrcb+ty+0flFWguCgr1gIsIHXdWIWuBMF/WdJ8dGpOcRZ7vftEy2Odss1JDlTx6zGk3utgjcopS6LLmhxeS4jB/YKEvd1x/pKwyUqCwux7+PlHZAsaZdOndplflNK6WzZ0hGrc9OTk7KmFY29AFWvSBnkXQOO8uYsL6jU758t05otygtWLGtMDDvxUkZ+ZnbwGmUlbuiykZIec6o3CXa/mHrkvgYn5T+R9xzS5N07nd+HT/b7zXQiuU9zfzNGsOPyTEZesZrbC54Qg/4Qr5vkn1qNazdY23Rmn4Zs8rV5NmxQq+Ejn7n9jQ1uOeQbFzqLEv1aHDL8Lgzn4Tnr5IQwWkMtz/aEzKQqaZ1HLvbo2Wr13Nhsm9lcX56uarkelAMF9aoHhnqczGO53LzcNYr3vGsDWzcsEz63ADpsLePo86lylk5hvQg6iEviBp5xl0X/RqV4HhzB5p1HeuTtlucaazvUdw+9udT1jHmLZF2tV9OaNcXpR6ombZTnONEd8JaH+2WF38IFe0nn3xij+GhKBeEBAMPhfqsmodp3lkZp+fHzw6dsdfn0TdGje/r0vMDEee6aSH8yMwKww+DeuVVn16vmPgaS/qvZ8WK2ohsXOy85usibqlV9Ivz1yt1anR7LbAI7Q1g0vTr2k1LZGV3sJu5uXLp++79+vRaV269MmqwfPjh/JLrTK8vs1wFulT9FyurMVXcLyGVZ2Wc8EP/BTBYmVUGGxZu1+g4t1Boyzd601Kr4q1XUisoS3rAEPZ6UX0fJakEa+unbWuvHOg9srTjVZvWK+NLvcFlbbUQy7jOrmH7O4tyl3D7h61L0mNcb7g92l+cVqnu2S9Mrx1jGZ1DonoV2Jb0/jJ/30T7VNuOKqAquaWnaHRPv6TnL993jdGrzacetBQbpHoD2jpvFBvzFRzDeo8D3XLHc5x5GDUdz+bj1rfvI4/PWTqGtOl9x7h2Dk59vGl6Pzro16Bw49QxvMHJLfV1C9v+vtejj5Oi1nWu3R3LZ94iaetLev0tqMKMTz/91B7Q9OLFiyVjgSjVaypcU9Ooaavd48M1zpgf33phr/z16+/IDU/3G9/XZcwPRJzrpoXwIzP1i3yzdDqDR+r2PBpR8T8xKF3qsamLzfcxmysmwQqQVrFzKxp6ZSXCYoVMr9T5ftkJ+SU2ypB7ftXTObxbB8o1WKKMqExZlg0/UvbEMDla/BU5+ISUsEqhZbnl+QKkGA0Px9jjopQJPwpjIox436WSsqQ3SMJeL6ptM9WwKHnf0h4jYKOsbF7ku4e9qLatvV96zT0/9Aaj96tyhMH96DNsf2dQ7pJu/7B1SXqMH94oi9zpIyxOn9E5JCr8UD04Ssu36fsm3Kclt700yqKWTuk7rDUAbaMbdUnPX/p31XtvxFMLOtxeC/pYIPo+qOQYDj6u2rXc8RxnHrGPZz3UMff8WPTMiH/eurN1DOkBlbHnh9ZLJOnx5nrAux2oMbBOtqnqGMEeWiHbI/T1eOGH99hy61rtCyiTqwZAVfzVX/2VM89Sv/Od79jhh/tI3Jkw6mkvrv/k0a1y44Zf2Y+yNb2vy9NeEHGumxbCj8wsf5EPrfgf6NQCAjW43iJZqro8P+hWjMIqJsHww7AOeiXNuT/a5LKtZRqslkkaLj4vjsngJn8I4v2aZK40ed+xsD1M67xocWdoZUpZNvzwVdIsU4Yf+ngCCx/pCzTKUt72Egg+Vob9EqZ1ex7d3ycbtcEHG8MaGq7a8pc+M1SYz4kRGbQaIcuKT9TQbgnIqixFlLGCEfvIdly2PaQ1kOx1UbfFrJQmd1vrn/P1ngmM+TFvkXQWu3vrx898WRj4XkWXWw3v4roEDVv3DMpd0u0ftsykx7i2fo1fMS9T2bnHmT7p/EPUpy087aXLu0XoVv+v7QVN3zfFPh3r9z01qWCjLFqjh5rR5/uk56/o7aJ9r6L+ZU7uWlm8hcf+vNaLwdcDIGkZKnusxpim7DwSHs/6Y9Sd71Ac86Pc7X5Jv39Wx5Clfp0Ijvkx/yHtXJ30eFPqoZ2ph2BmdYyw81jY6+XrRcri8nyfTa7qxXH9+nXp7u52lllw2bJl9iNt9deefvppOwCZqZ4frx09I38UeJxt0LfOX7Trp0/sPWF831WFI2p+puUgIs4V00L4kZnlL/LmSpH+y+QCads17n1GqwSZKyYR3bjddRjfJi3OPEJ/ddNNUamL62S/N3aFN29zpcn3hBTtXuQkzkT4Mfpic7ECWxp8KGMOeKp3jb84Kj3fcxsDEcGHUb33T2AAxKBR33e/13gq7qusylLZxlDEPlLqv4w2bdR6EWnHYPBzhzuLvwzbWg2fpSVPKtGfjlFm24WatHFgGbfcJd3+YctMeoxrDemyg+gqMzqHmKZV3fTdBuSSkl/4Td83/T4dP9wXCEH08V6iz/dJz1/R20X7XkUDy9R6Fqh95PU80W95sczwehB7mnLvpziex7cvKz4RRKlCgubHemSo3P6drWPIdlz6lt9SfK8QQhieOJT0eLOMvt2lkjrGzIQfWanG7jh9+rT8+Z//ubPMBvna175m9/BQqn+7r3/pS1+Sw4cPy2effWacVzVsXL/TGGYo/57l9GfX7frp7tOTxmlc/19P/J/G+SMiziXTQviRmWnDD//n9Max8d5hS69iErgfVxvYz6uAaI1h0y9CQbNouEyOysgxwy0a+pgkxXmbK036vciljZx4Vjv8GN26zOlmHPxV2K+3H62GkPFRt03S447RcXFUtrmDvs1bJO1h98frlWXf63oAps3XZNT3td5zG5nevsqoLJVrDEXtI6W23kt/po0Hondp1z83OSjt9q+iwYp8qd6+infPfKlJGweWsctdwu0ftsykx7i+XW/fKCNhZc81i3OIZdj5sqfYI8ran77w1/x9K92nYz3Nzuf1/RN9vk96/oreLuMyUnIb5Uig4a7dDnLPOlnnBq4ltz9kdz2IPU2595Mezyd6Cj0/5lnbvVxZLHGWjiH1+ouFnh++AZZNJj3e9NtdjIFOJXWMmQs/JsfHC4PPGt6Loxqw9OrVq/IXf/EXzvIKj68dGRmxX1eqf+uPxf3qV79qhyJq7A/TPLP2zRPnjWGG69c2D8hzh87Iv+rYYXzfVc3HNH9ExLlkWgg/MjNt+KH/MrlA2vrGrQbspIzt36iNGh9WMbG0R2IflMGBntCnvejLbbQqxoNHnBHXz47KUE+ntCzXHnOXRcPFmYf9hI5NPYXK+vYuadN+RS1324vvySmq90PPiIw5t3eMHe6XrseWyrqodbCsZvgxZjVuik8iuKNdtpU0TiyHne+ohVKN32qTLuu9vk1ucGL5vZ5ChfXimPRpo+kv+dttpfO0HFHduq11nX97i7R390n//tHCvtzVI53N3ud9T+AwqX3fRY86+8myr7tNlhYfHVmFsqT/+nrrSuk5PGbt00HpGXCXE7GPlNovo+qX4hH1y/bEqG/b+T5XXI8FsvJnhadJFNbZMvjUAX2d5zVZZUxt28K0o/ut7duyTHoiA5Swdc+o3CXZ/mHLTHyMq8F8vcdkLnykR0ZOOMs9MSL9qrw8oc0n8fzNhk6rje/gf0RnjO9bbp/usbbhGveJGNbf1rl4tKelGAQ2vejuH/287Zyf1C1j1rl4VL2f8PyVZLuE6d364mkKexKVoYh9WbTc8VxuHkmP5+LxYu3LXd52tS0bZiT8/pkdQ9r1qGldoXxp6+1v9Cc43nxj1DTJxsPePG3t7VFJHaPS8KPMcWJrfd81zr6O85SyENXtKx0dHc6yCq5fv754a4tS/buzs9M3zapVq2bs1hflT/eMyh+s2mIMNcr5ew+/bH/eNF9ExLlmWgg/MjNt+FEYwT1YaVUufGhZsYJlrJjMWySLihUfzeDTAny3URissFJXoj4Pg433dJUd8FQ5OdBeMliqbuQ6WFYv/ND3dYTa9hta743F4dNqjBV/vS6z3Vzt762tq1F9vmGWm4dl4x2dMqR3m8+kLKkKsRfUFS1OE7GPlCWDUjrOWyLLWpxfMn2f03sLlDr/Lus7aseLfitTqcHGQNCkjQPLBOFHou0ftsw0x7j+NAaT+nyyOIdYhk+rNw4btQFCw7dx7H0adUzctFL6tXJiPm975/4k568k2yVUfVBN25X+W15cM7oeeJY5nsvNI+nxXOzJZbLRHr/Fu74YnKVjaHJPuxd4B1WPg9+qNWpjHm/eQKEhOtOlrmNUHH6UP06C19PU5d/ywoUL9mNs1Xz+8i//0h7/Qx/UVP1bvabeU9Pcddddcu7cOd88ZkIVYJjCjXISfCAieqaF8CMz04cfqjI/0r1SljiDMHpP6/Du1TVVTOzus+ND0rViiTN6+3xZ8uBGGTTd92yPpt8pLXd5g6zZgz82r5SN/VqDK4uGizZyf3EgOqtSary/OaLSZKtGqH+s2Rug0nL+rUulZU2PjJT5la+Wwg/l2K510uw+ycB9JK1esdS3fYT2tle/jG5aKc2L9ZH71Ta2ts36PhmJM7ZBaEPP2Vfdg+YnxmRQlqbGB+1eKu7n7X3aE7Pnh1INSln8/HxZ2NwmPcOT3vgB2ucmh3uk7Z5bzOGTY7AruhrvofPBpSXld+Wmck/RSd44SBR+KONu/7Blpj3G1cDF3W3S/C1tW9pjp7QXtr07XRbnEMvIafWn9RRvX4guN7H26dlB2bjCf74JHU/C2g+D65u1wTbVtujx97aKef5Ksl3C1Z+EYml64odrFsewbtTxHGceCY7nsX5rvW+PCC8sy4eIM3wMWcdO//oWWaL1qCs1EDTEON70ZRktrlu6OkYW4Uec48QNJ+ffvk4GTYFdAlUvjg0bNtihxpUrV0ren56elvPnz9s9QILvzaTq1hU1BsgflhkE9fdX9MiXfrqDW10QEQOmhfADEfPr2W3SYjeSG6XpZyP+7uUTI7LRDbEMjWVErDGL41ss9A/caTk51ufdahQV1MyCxQFJb22Tfv22DnX7SZ83EHj64AvrVfXUFvXY2i+299pBhxt4qL/V6zzVBRHRbFoIPxAxt6ou13ajI6Q3VvEXTsIPxJq3+BQd4/Gq9cirqfDDG4Ta2CNF60VC+IGIiBjPtBB+IGJ+7XdvKVkobf3+X4rHtQH/9EFdEbE2Hf3Z0sLxrMY0OqK9pwam3e4OQq0/krgWHJWupYXzjH+8K8tJbWDXeSulv8JbPhAREeeKaSH8QMT8GhhMUY3fsMg3TkqDzP9eT/QAiYhYGxZvY3OO3VvV8ayN29EQ/djx2dI/6Od8WWidgxa54z8pox5rjoiIiCWmhfADEfOtGhx2fYss1RsbNy0sDG64azTwmElErGnHSgeRVaGmPRDofn/vrlpybE+XtDUbBqhe0yNDKR/vioiIOFdNC+EHIiIiIiIiItaFaSH8QERERERERMS6MC2EH4iIiIiIiIhYF6aF8AMRERERERER68K0EH4gIiIiIiIiYl2YFsIPRERERERERKwL00L4gYiIiIiIiIh1YVoIPxARERERERGxLkwL4QciIiIiIiIi1oVpIfxARERERERExLowLYQfiIiIiIiIiFgXpoXwAxERERERERHrwrQQfiAiIiIiIiJiXZiWORt+AAAAAAAAAMDcgPADAAAAAAAAAHINt70gIiIiIiIiYl2YFsIPRERERERERKwL00L4gYiIiIiIiIh1YVoIPxARERERERGxLkwL4QciIiIiIiIi1oVpIfxARERERERExLowLYQfiIiIiIiIiFgXpoXwAxERERERERHrwrQQfiAiIiIiIiJiXZgWwg9ERERERERErAvTQviBiIiIiIiIiHVhWgg/EBEREREREbEuTAvhByIiIiIiIiLWhWkh/EBERERERETEujAthB+IiIiIiIiIWBemhfBjhjx48KBs3rxZHnnkEXnggQektbVVfvzjH8urr74q586dM34GERERERERET3TQvhRZd9//3159tlnpaWlRV588UUZHh6WM2fOyMmTJ2VgYEA6OjrsMGTnzp3Gz9eFJ3qkZfFK2XbW8B4iIiIiIiJiRqaF8KOKquBD9e7o7OyUCxcuOEsuZWhoSH7wgx/YvUBM88nOQWlraJCGW9fJ0EXT+2PS1dQgTd1jhvciHO6UhfOWStcRw3uIiIiIiIiIGZkWwo8qqnp8qOAjDseOHbN7h+zdu9c4r2x0wg/LhR1DhvdThh+IiIiIiIiIM2BaCD+qpBrjQ4UZUT0+guzYsUMef/xx4/yyUYUfTdL5szZZ0LBENh4Ovk/4gYiIiIiIiLVrWgg/qqQa3FSN8ZGE6elp+/YXNS6IaZ6Vq8KPRmnfMyl9Kxql4faNMuK7/SUk/DjRL+uaF8p81Wtk3i2yZEWXDI3r73dJU0OTdJ1wXyuELF3HxqT/iWZZeFOht8n8W5tlXT/BCiIiIiIiIqYzLYQfVVI91UWFGElRt8n09vYa51m5hdte2gasf0/0ycp5DbLkmRHtfUP4caxLmuY1ypI1/TJ6dlzGTwxJ10ML/eOGGMOPBlnw9SWybNNg4XNnR2Wwo0kaVY8TxgZBRERERETEFKaF8KNKqie4qKe6JEX1Fnn++eeN86xcLfyw/p7sW1kII4q3vwTDj0npf6RRGr7XI+PFeVhO9Mkyaz4tW8cLf4eFH08ExxUZkY2Lua0GERERERER05kWwo8q2draaj/ONildXV3y0ksvGedZuf7wY2pqXLa1NEpDU5eM2r04guHHoLTPM4UVheka1wwW/g4JP1b2TTp/u4bcVoOIiIiIiIgYw7QQflRJ9YjbgYEBZ2nxUZ/75S9/aZxn5QbDD8uz26RFBRw/G7X+Lg0/1PRqvA6jj0WHH77l2BJ+ICIiIiIiYnrTQvhRJV999VXp6OhwlhaPs2fP2k+IGRurVjhgDiXGt7ZIoz1A6aix50dLz6iM2+N2BJxw5kH4gYiIiIiIiDNgWgg/quS5c+fscT+GhoacJZbnmWeesZ8SY5pfNoaFEu7tL+tk3ff0cKIw5kfjij6Z9E0fkPADERERERERZ8C0EH5U0Z07d9qPrj127Jiz1HBUT5EVK1bYvT9M88rGsFDC8kSPNM0r3M7iCyecp70sWr5RBo8UenyMHR6Unk0rpWuP+1nCD0RERERERKy+aSH8qLIq1FC3suzYsUOmp6edpXuosEP1+FDBx+HDh43zyM6I8MNy7EX1KFpDODHWL50PLpFbnHCk4aaFsvTBThk867xP+IGIiIiIiIgzYFoIP2bAvXv3yuOPP273Auns7LQfZ6ue6qIGN1XBiLrVpbo9PhARERERERHr37QQfsygw8PD0tvbK88//7z9OFv1VJfqDW6KiIiIiIiImC/TQviBiIiIiIiIiHVhWgg/EBEREREREbEuTAvhByIiIiIiIiLWhWkh/EBERERERETEujAthB+IiIiIiIiIWBemhfADEREREREREevCtBB+ICIiIiIiImJdmBbCD0RERERERESsC9NC+IGIiIiIiIiIdWFaCD8QERERERERsS5MC+EHIiIiIiIiItaFaSH8QERERERERMS6MC2EH4iIiIiIiIhYF6aF8AMRERERERER68K0zNnwAwAAAAAAAADmBoQfAAAAAAAAAJBruO0FEREREREREevCtBB+ICIiIiIiImJdmBbCD0RERERERESsC9NC+IGIiIiIiIiIdWFaCD8QERERERERsS5MC+EHIiIiIiIiItaFaSH8QERERERERMS6MC2EH4iIiIiIiIhYF6aF8AMRERERERER68K0EH4gIiIiIiIiYl2YFsIPRERERERERKwL00L4gYiIiIiIiIh1YVoIPxARERERERGxLkwL4QciIiIiIiIi1oVpIfxARERERERExLowLYQfM+TBgwdl8+bN8sgjj8gDDzwgra2t8uMf/1heffVVOXfunPEziIiIiIiIiOiZFsKPKvv+++/Ls88+Ky0tLfLiiy/K8PCwnDlzRk6ePCkDAwPS0dFhhyE7d+40fh4RERERERERC6aF8KOKquBD9e7o7OyUCxcuOEsuZWhoSH7wgx/YvUBM88nME13S1NAgbQOG9xARERERERFr3LQQflRR1eNDBR9xOHbsmN07ZO/evcZ5ZSLhByIiIiIiItaxaSH8qJJqjA8VZkT1+AiyY8cOefzxx43zy0TCD0RERERERKxj00L4USXV4KZqjI8kTE9P27e/qHFBTPOsWFP4MTEiPWtaZOmt86XBeq9h3i2yZEWXjExo0yAiIiIiIiLWgGkh/KiS6qkuKsRIirpNpre31zjPijWFH+N9su6xLuk/PCbjZ8dlbH+XtHy9QRY8MeT/LCIiIiIiIuIsmxbCjyqpnuCinuqSFNVb5PnnnzfOs2Jj3vYy8swiaWjqkjHDe4iIiIiIiIizZVoIP6pka2ur/TjbpHR1dclLL71knGfFxgw/xrqbCD8QERERERGx5kwL4UeVVI+4HRgYcJYWH/W5X/7yl8Z5VqzxtpehwpgfixfJLfMaCuN+KAk/EBERERERscZMC+FHlXz11Velo6PDWVo8zp49az8hZmxszDjPig2GH2e3Scu8Bln4SI+MnBiXyYuF1+n5gYiIiIiIiLVoWgg/quS5c+fscT+GhoacJZbnmWeesZ8SY5pfJgbDj4E2aWhYKX2T2jSWQ08sIPxARERERETEmjMthB9VdOfOnfaja48dO+YsNRzVU2TFihV27w/TvDIxGH4c2ShLGhql6ZkhGTs7LuNnR2Vw0zJZNK+R8AMRERERERFrzrQQflRZFWqoW1l27Ngh09PTztI9VNihenyo4OPw4cPGeWSmYcyP0a0rZclXGgvjfNy0UJqf6Jex4Y2yiPADERERERERa8y0EH7MgHv37pXHH3/c7gXS2dlpP85WPdVFDW6qghF1q0tVe3y4HuuSpQ0LZN0Bw3uIiIiIiIiINW5aCD9m0OHhYent7ZXnn3/efpyteqpL1QY3LTouI/tHZfzIoGx8aKE03LpOhpyBTRERERERERHrybQQfuTeQVl3k3p8baPccsdK2XbMNA0iIiIiIiJi7ZsWwg9ERERERERErAvTQviBiIiIiIiIiHVhWgg/EBEREREREbEuTAvhByIiIiIiIiLWhWkh/EBERERERETEujAthB+IiIiIiIiIWBemhfADEREREREREevCtBB+ICIiIiIiImJdmBbCD0RERERERESsC9NC+IGIiIiIiIiIdWFaCD8QERERERERsS5MC+EHIiIiIiIiItaFaSH8QERERERERMS6MC1zNvwAAAAAAAAAgLkB4QcAAAAAAAAA5BrCDwAAAAAAAADINYQfAAAAAAAAAJBrCD8AAAAAAAAAINcQfgAAAAAAAABAriH8AAAAAAAAAIBcQ/gBAAAAAAAAALmG8AMAAAAAAAAAcg3hBwAAAAAAAADkGsIPAAAAAAAAAMg1hB8AAAAAAAAAkGsIPwAAAAAAAAAg1xB+AAAAAAAAAECuIfwAAAAAAAAAgFxD+AEAAAAAAAAAuYbwAwAAAAAAAAByDeEHAAAAAAAAAOQawg8AAAAAAAAAyDWEHwAAAAAAAACQawg/AAAAAAAAACDXEH4AAAAAAAAAQK4h/AAAAAAAAACAXEP4AQAAAAAAAAC5hvADAAAAAAAAAHIN4QcAAAAAAAAA5BrCDwAAAAAAAADINYQfAAAAAAAAAJBrCD8AAAAAAAAAINcQfgAAAAAAAABAriH8AAAAAAAAAIBcQ/gBAAAAAAAAALmG8AMAAAAAAAAAcg3hBwAAAAAAAADkGsIPAAAAAAAAAMg1hB8AAAAAAAAAkGsIPwAAAAAAAAAg1xB+AAAAAAAAAECumbPhx9TUFCIiIiIiIiLWkWkh/EBERERERETEujAthB+IiIiIiIiIWBemhfADEREREREREevCtBB+ICIiIiIiImJdmBbCD0RERERERESsC9NC+IGIiIiIiIiIdWFaCD8QERERERERsS5MC+EHIiIiIiIiItaFaSH8QERERERERMS6MC2EH4iIiIiIiIhYF6aF8AMRERERERER68K0EH4gIiIiIiIiYl2YFsIPRERERERERKwL00L4gYiIiIiIiIh1YVoIPxARERERERGxLkwL4QciIiIiIiIi1oVpIfxARERERERExLowLYQfiIiIiIiIiFgXpoXwAxERERERERHrwrQQfiAiIiIiIiJiXZgWwg9ERERERERErAvTQvhRq14cl5GBfuk/MFb4e2JUBnf1y9CJwHSxHZS2hgZpUDb9/9u7/x830vuw4y2aIEDboOifkF/bXwosEoeAjC0UCLj49Iv2hxyr4jYHZAEhbAUQOIC2ctqqFq1YjM5YKxFWsLC2LytHoOzzMb56cXJ4p4Z219RFplyFcmSqkEHfnunsmYXQs2P7Yl8+nWc4Xz4zfIbkzJKrpe79AC/ciTsczpdnnnmezzzPM1XpWpd5svRvrUv+kLO/h4tSy3zcEuy2pXahKEuHvWO6sChLJ9ak0fP+/qgrLed8Ne/1Bv/utfd4/nAQda8XvPO/IJVt+zIfRP37TWncbEn30eDf3dtOWbbdlp73b615wb+GClKdyvXRldrzi876cpK/1JS+dRlk88G7j8zEw6oU/ON4oWlfBnNnpnWOIdMp56Zf/ir9pqw/k3PWvSjFmleXnSrKIxwE5MOBrlQL3nFYqEjTusx0ZU0EP6ZGn3TjqKzfsS3n2K5ILljOYan89F4teX8vyZbToG5eNDcQ59/HN6UdW3YyGS/OR33p7fSkt2v52+PyqCuNKyVZOWZu/IN9Wjy2IqWLVWk+6AfLBcfMUXrVC0JMRV8a58J1B57dlI63TOL5O1mbXsHonJvOzU0pF/NyxFS4nPXnnspL8VJdOrbz9bAhG6eWg2UXjxWlUmsPV5rSrPdhU6oXipKPn4srjaDhO6n2S/lgHe71c9u+3EFC8MOmJetPD47J0cstebdb8xp6OVm7Nbz81Cvfwe85nl6Xlm2Zg2rCsu3xoZI3FXMU/Og79ZUls51PV6RxkOoBGejyWjP3t5VTa1Ld3lsDfXZ1DosplXOTl7+jGzYd59j69dolJ0+79Ypba2Fdt7Qlvdh39m7Oy6Ndp27t1K/7KetKc+9RT1q1ihSfORLkD7eOeXZT6v4Dw7nCfXGA4MeBT7aDuDfx4MeC5F9qW5YzN5tYw9lW+XlYk+Jhp0B4ZkNaTsHYrRVlcU8R/mwXZ8/53cRtfBwedaR60hJ48D1fC2+wD7akfMJUajalNdVKmzqWhwqyebsr3XtNad5XjZM7G+4ToEVnezpTOX8xuy3ZOBE2kIYccwoevc8PnMq2F8iIW7qotinNeu85+2hbxndsTZp9b9mx2rJ5PPr9o5echrN12YOD4IdNT7ZOO3noUF7Wtp1rwn/6l/A0dPpPHvvSulKU/PGiVG50LH8/oNKUbY8NlbypmJfgh3Ptrh0z25mbfWN+HyQFP0I5KVzfQ5kxszqHzXTKuWkEP/q31gYBMkPf950ybevsiuRPlJx60iyCt3NcHj3yHxLMoMfNgdZ38tySl48sTCBv7oJB3BcHCH4c+GQ7iHszHPyw9tJ45Fwk8UbovlR+slycPak9v5/bOF7Yo2JBcs9VpHqjIY2bNdk8X5Llwzkp39yPp6MHoKDbdbbBrZQuyOKzJdmoDY7D2nNh42n5ql8h0j1VFqV4pR5bdlk272dbb/PikuSeKkjlulmns+yNTVl1u7kOli28POGTtHubXiDlqJRKXgX1kFN4HvCbIMGPvZtpt+s5cjDKtnEOQNn3JJiT4Efw8GMuGyTDdHld/Ky5voy6VM8vq964ZalPHLSff3sOfqg6g3kYVH2gvzNrc1we3V6XoxMd9yfMHX+/HceKXh3TuQavlKXwVE7VL+cJ98UBgh8HPtkO4t6ok14oeBUbS6HmF3hPl6TkL2+r/Ox2pH7FqfQ6hYG7zKEjsnxqQ+q6d4HSv1+PDGlYOLwk+WJFanf8pzXq4ixtSeduVcrPeV3OvHU3umqdvZZUz+RVhSBUuB5t0Pbv1qQSGSKxbB324N9k3a7wZv1no0Mw1hvjG8pht9K8bN6L/d38nvrNkQ1Tb86OfOz4NsbchMxxXrf2jPDP9YhCcLsSLB85hkFF2Kt03a8F5yZ+rCMebDk3jtiN4kFVVrzfCPJVb0tK/mf66fHdsOeGe06CdUy4XiN2zF1qWNfI7VeCIS8m4HFvU5bd7+esAYXgvJputGaYwKVw7hWT98rXLUN5umbIz4qaoyVOFdQ7bffaW4l3ybxQk3bsaV4kjzV60rzib0tOjjxXlupd+/XabWxI6cSSLHrfHQxBasXmxPDz0mAIXe+OumbNHDPF9eg1a6MbWRbh+cmQby2Sr7nkm2Kk8n2/I7WgXLDvo7+827PukT7m/npH7EuafODYt/PkSFO2uVLcIzKVvZFry8nPJyvOujvqPhc7to6094Lkc+is68HkQ+oieShShifnhfi5NfdMd+jDLX0s+tKOdc+OC64JM0/XDbPOcP/NOXHvw/FyIBL8aEjv1oYUvf1MLMMc+3mvfffdjmw+O/hOpBfrpGXKiABPUjkRKdvde3TBut3dxnpwvMx5s5XNNsnlk3rQY6u3TVhfSFx//PvmenqmKOWreihpmFfLdSe/qHqAu4+X4ud5RDnnSJtXrPsdYSnDI73Vjjr3wFH5XOWB4PPRdZ6p12t9Q8MLTTmt1+vLULaPGrroLdu9uS4r1nuQd1wT15WwnRmuNdek9eAJz9ckui+H2+Pm8/gyKn8G224eJEfuE4+xfpXhvjjZ9kyp3M6QFzL9rhm6dL0c1D/Mw9LNWz1pBOVJLC/PSNZE8GNq1I3hwmZQaYgXDK3LR93Pj16qqeWjGTQSSR+y5GTa6AUfjMkdop8W6htlwT4EQnVX1BdJXOTmlPjbjtjQi+Ame9z5fev+LcnaLXth5vOPn7tvN+I3qqjkiki646uFFYW4aQQ/nEK45vy/OjdpbyzWgk+Nu125poMaI7Y1bkSBOkT93mRdpcM5IhbO1p1KfzgEJneuMdQICM+rk4+swwRy0R4nO1tS8o+paYwcz6tK6KBwL1+pB/sfPO20iQ3lCbcl72yLpSun5UmYHhsdlztZdYdJDZYNz0/+ZMF+nY0bWqTPm0WYvzLkW4vEa27C4If1fCaVI6WqbEW6z/rrTdiXlPlgX8+TI03ZlrYMS1/29mSrZDkXh5Zl2R+eFssnme4FiefQOR6X/OMxLBebO0nnoUmCH6aXTdK51cPtWpfDbVs85uSX4ypY4jYUTEPEO247NSn6fxsSO77qurTnmeHhF/t9r9W98SLzl01apoy4ZySVE+PL9iUpn7efu9wEc0okl099qZ/11xXLQymuNev6zfCGxO8XpbbjLafyau5k0VpHC+bSiC0/lWtx6NqJGy7D2y8te/+Ob5snKQ8EnyfXeWZRr3WNHF4Yv+7C9U9WtieUmy5nX915zNQ2DwnLv1TbmeFaS3UPmeB8TUr3cFz+rH1qAF+47ctSfP4g1K/S3xcn354pldsZ8kKW39X3Rr3c8rNHvP9XeXmGsiaCH1Ojgx/N8El25IbsN/JMIagafJEMqoco5GT5Yk1a9zvSqq3JclBxL0vdv3n1G1IOCqIlWb3akPb9tjRrm1I+NZgvZLDeaIGbe25Narc70r1Xk7LK7EEktt+T3p3N8Gn/ufpg4lPDLwz0bxec3/Ju4r2b4U1Ld2ELb7IOp7BYq7Wk87AttXPqInIbv976be6sq0IqJ/kzm9JMuGHbL3R9fAuycdtrZOw0whuBmrh0iDtBVV3K3noXVjad/daTVqnjHCsExwc/fCaqXZLKRfPEUH1/AuE+hxUEfbOJRtqTG6RxtvXamLd8rHs3bH++GttyEaobpL99QUPQyeuNWKNRn9cgzz/sSPOyusmoIWfhRKp52fCP565zDr28m4vdIExldfPshnt99Hp96e92paEaaDqgE9kWk6dvtKXrHIPN0+HykQDOfb9Xi9PIOrslHbNvj/rSvuZve0LFzjH2mrXxJyz2detSOeJ9V5cjWfKthf2aMyYJfjiOrcrmttnHesJQq9jyhnkqenZN1j7b8Lbbvi+p8sF+nydj4rIt5T3CkbrsDbpkOw4XZeNGU5rb9Ui+juSTvdwLjKFz6NjZkrULVWnc60pv17kOe+3IU2bdIA/XN0nww1Rg/eWdxud9Z93mfudct9ULZan6QwD7qpw/HR6bsME33FhsXS3Lhjm25n7Q70tX7X+kLhAp8805rA/KsKur4fK67HsM99rwvlGRhi7HJy1TMlTC42V7+brZ7pZUdb5zLD6/4eSLjrRvqDzvTS6ufycu6Xd7tzfDBl3k/p+uvmBdv7q/5S86+dvJF/2d7qCX0GUd3I+WI0unnev/fk862+uqsamGqCaV2ZnzSrrgR13N8xFvxAWS8sC4Os+s6rWOzlX/+j0q5a3OoN7WV2VLpM6Rcv2xXrYdt9wy57AqlbPOMfK2oe9cN/Vz/vdXZPOOfz1l3M7U11rKevC48+UvNwn9EMKxeGI9cZLTSHng169i5di+1q/S3hdTbc90yu0s5W7q39WB/kN5qVw3x6EhtYt6+CDBjwOZbAdxb9SNwTyVCm54Xjcxs4z/mTuXgbrwdAbVFa5YI1w/kfYbYP16OfgsPzKKqi90/bQhuo7ERnnsIjL09yoN/TdVuVQFgb7AijVV2Ol91gVHguFI6qIsOzeWVqziY73Q9W+db0SWDyt74yoB6lgObe+Iv00U/FhytlUVtmnoSU2dvNP2KghJBd7EwY+E9QbUfrlSdEM2wifeqvIaXD/DwRa9P9FJUfWkqeH+hPlO76Pa9wnyXPgUNHru9LZEuoYHk5k51NwlYQN8JfbEwhYMzXDNjhFG653jGmmMZ8i3Flnymi4XItukb7Bqm/Ty9kq3fV/S5IPHdZ4mKttS3iOMtGVvpBeKPieRhlW4/F7uBYkNJ4vI71grb2mDH07Dymlg217BrMvlyLlT10M0j9uoMkntf6TMj80NFvZ4CYf9PY57bZAHVsJGm01imZKhEp5YtuthlwurkcBe47z/eTQgZqPXb5N7ZlW29PWesr5g3S8V/DANrOShtbocUfVGh76uw96b9nIue15JE/xYkiXVQCxEepQqSXlgTJ1H78N067Xqeozna3WewjyZcv06+HFsVapDw2hCo497yu1Me62lrQePOV9pDffqMcNH1kcOI0usXzn3cz84O+v7dtr7YrrtmU65naXcTfu7+oHqsj4vaqhkvJ43K1kTwY+piVWi1cXpXyT+hTB4wqguPJ1BVcEWz7i6Aeb/LbwYo5l5mPq9+ESskzTK49viCC/sUcILILzA4mPa1baNu7A9ZnyenljTZd4moQoY64Wuj+EIEx/Loe0d8bdJjvMEXXeteipiH+sKmFTgjWqQBkasN6D2y5c0pnGIvonp+UjU5/GhL3p/IjeghP0Jn6DYn/gPRdJ7balfLUvxeN46N4Q+d8nH1taNWn82QpBvMlyzozhlS/CkbujpQYZ8a5ElryVXAscFs5IaO/Z9mTwfPN7zNLZsS3mPMNKVvTo4UJBaZNxz7D7nfZ79XjCiwWpeo32xJCvOdRiM+Vd0/krOQ/a8YCpvkSDT4RX36VVXl1e6Qmvt+RE7lu6cH4NXhOt5SgLq90fdW20V78dxrw3WMer17KPKlAyV8OSyPXm7O9dWrOuy0esfNniavaHHt6esL1j3y9zLVKDA/E6+tGF52j3i3Fiva/vy2fNK/NqJ02V4jFM3sL3JKzEPjKnzzKxeqxtzI4Rldcr1u2VntOxePFGxvkJ55HFPu51pr7W09eAx5yuTh43h+fP8N8R5yySVE4+nfpX2vph2e6ZTbmcpd9P+rg4Crd3Sy+t1hWXMLGVNBD+mZjjz+6+0HQQ7/Iq8/zRHZSqdQUdVli2ZevIb14iLJ+k3R1xERvjbTqXhGTMe2mZjgptsigs7prsdfbuIbkBbL3S1r2YSS/s2O42j2AUdNWp7p3+cx9JjN51KyGZsEigdpZ0kWBAYs95A0A26K+3tWuSGtqQnUrXR3QgTRZ+CJd8QE/Ynsh+xuR6cm+2GbnztbMmqCni44/yLZVk7Vwi2U5+75G2x5Xe9fYuyFMtzgTNbXr7JkJeS6Ap4bEjEwHR+K/W5cSSXC/bvjC/zEvZl4nzwGM+Tkli2jVpnQlmSruxNPldG8KRd7Wu4/r3eCzzeq8L1OldOVWTtlB94SKq8TbJ/Rl/a11fVb3hiAXTdEyc+58fiad0IcCrG5vXO3t8WzMSMx4tSvliWgh/c1b8/qsy3nN/pHd8ReTUmWEfSPWlcmTJiH5PKieTyI3m7R5XBcXpZM6+Oe9+635JGTU9AqYaWqHMxSX0hcVu6loaecy7z+jXzo86N9Vjal59eXonT5YIZqtWQVi0MIlrnXEnKA6Pyv2PybRpxzGzlpP5d9xq1HZu8rL7ql6sp12/stq0vC1g0w2BUcHXkPqbdzhHH05onU+brcedrL3r3Yi8RUG+WGnVtDx+/Wd+3094X027PqDwxYlvj0uYFR9rfHZV3w2D08DGahayJ4MfUqIzuZZLgCY7p9n7Xi7QG4/RUptIZNOHJXdLfwjcEjLvxZyjExxR4YfRvfHdTYyoXts1uQyp+BVNdcNYLXT01jbzhJJVR25v8t6SudHu6sTgNujW/gZQUoJhkwtN418pJ1ptEP7UwNzLbMp5RkxpqOmiTfEMccXO6txGMvXQ5FYoVy6zm+qlZQY2L1udIn7vItiR1MQ7yu/5s/Pj0TNdsguThLr4M+dYi+dzYe3EYYbkwomuo+s6oG+/AiOM2UT54fOdpiK1sS3mPMNKVvWmfcE3zXmDoJ2ZHpXKzF/5NHc+JKm/jugv3B/NsRIIgkaFEPamf8SdwM0yD0tKrTR/3gvP94G/24xUp8xO7nYd55nHca4N1JPT8GFumjLiv6XJWn8fk8iN5u5O/M2zUsnpoSXCtpqwvjNuWoYaeOXa2OQji92PrdW0/JtO9FjXb/VV/luVtL7HPPTOr1+phKRP1YEi5fsW8rWozFgSZeK6VtNuZ9lpLWw8ec772zEzuGuSj8HhErqdI/crW82PW9+2098W02zOdcjtLuZv2d+n5McfJdhD3xpL5g4rXUSmcHDyxCrvwq0ylM6juajtiPLf/NgtdUbKOjQwqYRkK8TEFnm4URcd92e39wu5L55438VPkc/2auvCCs1ZEdGXYNn/FREZtr/pbrCudbuinOc6Jdp3GoT8pZOyJZYTeZz20RL3qNndR/e6k6006dpHJkNaSC0A95OV4RWo3zfvelRvr4XFRFYDkCqatcuboN2XNfUIZz3fDwjwabYgnBQD0tkTGqOvr2DrnR1IQQstwzdrorumJFakM+dZCH4/I/kXehBG9KYbHPDbeVE0Wpvc/uRzxJRy3FPlg/89TirIt5T3CSFv26spNZM4dM1eV/9tq+endC4zodawn2xxfeYt129U9y+LnRjPBXktwzryW0TRehiZFjlPnORJgTgq+6DJfPek0+UBPZuvv4/7fa511+A1Q23KTlCl6HyNDYnSejp7H5LI9ebuTvzNs1LL6b8G1mrK+MOm2dG2BFr2PsTkI7Ne1/ZhM91rUEu6v91Q5HX87RlLdZkydZ3b1WhWEt/aAjEu7/mH9W2spA9JGyu1Me62lrQePOV9p9O63rcOhw3pGeDz09RSpX+m6o6pjzvq+nfa+mG57plNuZyl30/6uvj51QC+xjJihrIngx9RYgh9OZgsjfwPhBaAyVaww0ROeDWbyNzOD65n8S7Ll3xgjjQozK3ZdmttNp+FYlbWSGT/nrzf9hR6dvKkstXtd6d5rSm3by+xOYyJ8Krkk5Vpbuu7wh56zXEOqF1ZkfQ8X2DDvGB82bwbY9BrLdfd3gtcPjhv24lQumxfCxtzSuZq0H3rdXx+2pXG9IiuXxhXuo7ZXP+HOSeFyUzo7sVn8HZHjnOXGsuv8TvDmgyNScs57JHDgcn7brYjoCvWiFK+YZWvqbRpHvVewpVuvOb5HTpZls9aQpnkjg3P8mk6+q6i3dNheVRtQDRP70wddkIaR8+QKZkLBGxzfo1K+NngTw2CYjqMXvSGFNzfnHF1tu43R/n2nouB37zafq3OntyW8/hrJb3vR5/pQwbk+OsG2dG7XZKO0qsZOZ7hm4yLjzQtOw1DtuxFUqjLkWwtd8Q7LjOibW+I3xbBccLgzjZuZw3X+jN5gR1cajYTjliIf7Pt5Slm2pbpHOFKXvTpo4L2Bx7wNJfltL856pnIvMPR986hU6j0nH/elq9/I4dDXvg6K5E6ue2/J2JRVdd2G29uV2gVTbg3ygBtw2mnKuj9Rm6pMB9tZWB+8dcbbJyMSqFJPUk3Pj7Ypd3c7Utez5Vvz4oB5s0fd3LcT3/YyreM7Iq/GmMDPYB3xt71MWKboBpa/zc49oh55I0D0PCaX7cnbnfydYXrZ4mfDe1rtSikyzCps2KSrL1i35daGlC76by1y/u3k5Y4aLmINZjjct084eaKp3+I00dteppVX4hLur+YYXQzzeWSoq87num6T9LlvhvVafY78smKQd80bs5xzdUb3dEq5/oc1qZjy+/bgTXHms972ehAc0g+ZdEPav9+2btSDya1TbWfqay1lPXjc+UrBzW/ua8LXpHrDcv0lDHsJ88FjrF+lvS+m2p7plNtZyt3Uvxt5wBm+hSf6GwQ/DmSyHcS9UTcGlUmiF6+eu0BlqnhhooccDHEKgK1oJXrUe6TDDJ7hQncroZbtUNvb314bHjet7OkCG6JvvhZO4TLRRJ8jj69jbOE+env9p4Xx9eZOFoKCMHKcs9xY1DlLpo5zbC4LLfJ+/hTrjeZti2NO4TfiiYU/J465+UfOj6IbNf7bKxLPa2LlzGnsBAGdYYsnNqTlb6d6oqnlnluVkhccsFekliRvy1OxPGl0Xi6GDdoh+trIcs1GhQ2YBCq/pc63NkHvirglKZz0z2VC8ONQXvK278byUXI54ks6binygWM/z1Pasi3tPSJ92ZtwrJwK36rlPmdM514wYJ4s2fLi0unVIC9Grn2n0aEDIwHnuBWGtnfUsc7JytXwSbN5amsrD1xOfl191QvKRQICepllWXUaa+7/6+OlyvylZ4bnB3AbRNf1E7X9vtc6gqEW0eETk5cp0UaxtuSUKf7TcL3dyWV78nYnf2fY2HuWY+l0OAbflaK+YN2WUffUw2VpBGWO2sdjS9Z8tzThHCHTvBZDSfdXR2R43nLY+yqpbjNBnWdm9dpHHak9H59/RYmsJ+X69X7FHVqJ9kqz1jXUOUi1nemvtVT14AnOV1hXG52Pwvxms+RsY/ggIryejsrSMcu2OuV7fKLd2d63098XJ9+eKZXbGfJC+t9N+A3nfKyW/KBarIyYkayJ4MfUqBuDziS60Ih0D1WZylaYPOpK40pJloMJ+Y5IvliRWsKrs7o3N6R0IpyMzX2CGHndaJYL3dFrykZRTfJ2bEVKtWilzJ2V/0IxnDzQX+5i9HWn07iwzZjZzbPOb6nZ9M2ETWZfJ3rVrc85vs3rFSk+cyS8wbrj/9ekNnZ+i3HbaybTK4fnzpyLSw3pPgqfaEaO8wQ3liGjKlSB2HHutaR6djl4c4L1jSxp1tv138ag8p07sZOz3vibE+J0N8HYhKYR+omq9+Q7+bzaK2f9uzWpnFTn2UJ3a+821qXo5y91Hfk3d33ugm0x+cBcs5eK3hticnLkZEXqwVO6KJOPN06tqLfJDOYSKF81+cRfLuM1q+hjZRXJbynzbRIzuV9QZjj79Vx58Mq/4FxGb4p+ueCeg0geXZTlU5vSjF3XyeWIz37c0uYDY7/Ok5GmbHOluEdkKnudynf9QiE4F0vFdWl0B4EJ6/LGnu8FvmhezD21LKUr5piHY73jZXr/blXKz/nn19teZ93D2+us+9W16P3SLH+iJBs31Tnyj29C0HhAbX8k35vfd86FuZf4QQR9vIIyf/D97s2wzMk9VZDKjdg9Nvje/t1r9Zw7+jWTqcqUSJk4OI9l99XC4br1eUwu25O3O/k7w5K33Tv/N+xd8ietL1i3Zac5uK7VObNf12ofSzXp3FH5+bCT/682Y9s25lxO7Vr0jQh+OHTAMufPE5NUt5mwzjOzeq37ZqbYut3ysyyb+m0/adffb8uWqRPptz25+WR4fjGjU1P3W/f316P3u4m30yyb7lrzvzNRPXjs+VJzcMTfnBLnv8Vr6DeHj1F4PR2V9VsHpH6V4b442fZMq9x2pMwL2eoHPWleLXn3R6+eZ/JMQj1vVrImgh8Anlw7W1Jyb1I5KVwbDGMJ/maG+CRE6/GEIR8gpWBCz2MVaaghRO4QnHolCMqOa3DPs+D10JF5STAbKRs4wIERDpvN/iKBYWkCm/hgypoIfgB4YgXR+IQodBDxprL5RCMfIJ3wCZm1x456EvpEV8qD+SNywbBDzArBD8ypYH5APSfN3hH8wDhZE8EPAE+uht99cUkqjWjlvacmUIzOWI0nDvkAqXSkujLIE7mTVfXqWkdfTWSqJyV9QvW3K4O5CZ6uqPkpMH0EPzCnbq0NhrDotwlOAcEPjJM1EfwA8OSKTURoxlrnj+eDeU+MReeGHWnc4MlDPkBKeg4Dd2y3k1/0fCxmwtM1NTkfsDcEPwCN4AfGyZoIfgB4splXTl4ZnoTMnTTsZic6/wOeXOQDpNS9VZVKUQfJzER1g0kjW3oeEGDPCH4AGsEPjJM1EfwAAAAAAABzIWsi+AEA2LO/+u5bslL7G/mNtdfk187W5J+d+bL7X/Nv87n5u+17AAAAQBpZE8EPADjgfvKTn8h3v/tdefPNN13m/3/84x9bl91v33z4A8ldeUP+9bmvuAGPJCYQ8qHPvO4ub1sPAAAAMImsieAHABxw77//vrzwwgvB+NfTp0+7n9mW3U+fudWxBjrGMd+zrQ8AAAAYJ2si+AEAB9xBDH6YAMa//MRfWoMb4/zqx18hAAIAAIBMsiaCHwBwwJlAxx/90R8dmOCHGbpiC2r8ysdfkf/08t/IpTcfylc7P5Qv3H1L/svWtxOHxDAEBgAAAGllTQQ/DqBurSiLTgMn98y6NPv2ZfaqeWHQiFpYKEj1of95V2rPm9dA5iR/qSn92Hf2am+vrZrta+D6t9Ylb15neLgoteB4TFG3JY2bTWn3Bv/u3Ws6/25Jl9drZvIkvwLNzO8R/8wEOk6dOhXsc1Lww/bdWTBzfNiCGTe/945XwkbT//m/P5Z/88lXh5b/d3/2Nev6AQAAgCRZE8GPqelKteA1zl1HZf2ObTnHdkVywXKOC031967UTo5Yx25Pejs96e+x0WwNfnRrUvC36el1acW+s1cHOfjRvJgLtq30ai/690d995j3Mgei1Dk157pfl7L3W4WXu5blp60nW6XB/i1dbln+Pn8OXPBjpy31q2UpHl9yA5dmu3JPLUvpSiNVgGt3d1fee+89+ad/+if3v//wD//gfm4CHUnDXswy+jvvvPNOZJ3TZt7a8usJPTn+85f/RnZ/8nP5bzf/Tp7+i2159pXb8rNf/NItc//r1v8eWv5ffPwV3gIDAACAVLImgh9TEw9+LEj+pbZlORN4CBvarkjw413p395wGlF5KV6oS0c3nB61ZP1p8x3dWyMbe8+PvrSuFCV/vCiVG9Mfj3+Qgx/vPtiS8om8rJzalNZu9G+tS0fd3y1czxqo6EvzUl5yC4tSrJl1eD1sDuVl/VY/tuyMPKx6ga2l5KDcHDlYwY+2bBzz8qZF7mQ1eh0nMG9vefHFF+XDH/6wG+hoNBryi1/8wg1qmBTv+WGS+ZtZxixrPjPf/dSnPmVd/7SY19bGgxi+X/14Tf5VLDDynXf+n7utn/rmg8jnPrM+2+8AAAAANlkTwY+pGQ5+LBzflHZ8uUdOI94Mr9DLxYIfiW6vy1H3O7MKfszWgQ5+JAkCTnsJfhwEfWmcGwTdcqUt6VmXmR8HredH79WSLD5VkPLVmjRud6R7ryGbp5e8bcxNtI1myMrv/M7vBPtlmGDGmTNnZHt7W0qlUvC5CYSYz8zfzDL6O0eOHLGuf1p+Y+01axDDxvT+8NNR5/9ty5j12X4HAAAAsMmaCH5MjQp+FAreU3ZLYMEPYDxdkpK/fCz4YQtMdG+uy8ph/3OtIk3/u4+60rhSkpVjZt4O27JhQ9Ee/BgdYOjfrUmlmJcjXvBmVLf+3p2qlJ87Mhjec9hZ7mpTeo2K95uxBqtluxePrUjpYlWaXX+56LZ17tfU+pekeClheMFuW2oXipJ/yuttc+iILJ/akEbsvFgb0w8bsn7CfizDZfweFWWpm2ExaruCYIkZEmH27xlvex25p0zPnpq0Y71MTJCiXatIUS0bFwnCDB27RVkqVqR2JzZ0x0gRPPPzx1EzTKbbkI1Ty95wjpwcea4s1bumx4qzrdfLsuwd28T88Kgn7RsbUjoR5h1zHvJmO931xJZ3dG9Vnbymh5CYXjnmvA2WD8/XUVm/7RyDS0VZ8q6PxWNFqdTa9jlr0uYHEygyx1it3+xn+Xps/Waf4/vtHO8j7jZONrzpzp078pu/+ZuD390Dsw7b+qfl187WrEGMuOJrd+V9r9fKx+r3rMsYZn223wEAAABssiaCH1Ojgh8XNmXz2cH/x3sLtC4PhlAcvVRTy48LfqiG/xA/+BHO6+A2UJ/JS143oE2A4OyG1L1GXtrgR3+7Ikv+3+KOOdugG/F31q3LLj27HDQGw+CH3u4407D1l9PbVpBCvPeMY8k5jpEG6a7zncThCEvONoQNb1vwIzxGw4aDH8621pz/V9vln/terRh8NuTYWmRS29Zlv7eAacQ751DNITFoqJvAhrfdjzpSPZl07HLO78eGLqleR+Ma48G+H3eOte0YHipI5dzy8OeOoXlFdmpStCw3sCRrsaE/Hedc2AM/y7J5f7BMeL7yUjgZHrOQs//xfcyUH5z9tx5jy/oj+s4x9Lcr3O5Rfv7zn7tDX77yla/IyZMn5UMf+pD6vdHMsuY75rtmHbb1T4stgBGne3yc+B93rMtott8BAAAAbLImgh9To4MfTWm/lB/8f2SIgT+EwjTqw+EUk/T86O/0pH7O/3xFNu8MJj7t7XgNtnubknf/tiD5z/pzjfSlftZ/wl2RpnoynSr40W9I2W/UFzaktTP4vHczDIgsX/Ub2j2pPe8t6zQQ8+er0txuSqO2JssqMBAED3pbUvI+W3i+Jp3dvvR7PelsV6VytiodfxtiAaCl05vSvN+V9g29Xt3IDId5mH3cuO31hNhphA3gZzeD9duCH+7ksjfKwecrL7W8Y64mnA2CHz7TM6IklYumV4O3zKOWbJ7dkNrtjvR6zv7tdqURNIzVBKtqItSF0/UgkNN+yQ8yRHtsdK76nx+V8lZnsE39dhgQOVSWRmSSVhNo8tZ/Nly/TSTwc6gg6zfb0r3fkLXndCBgcH5b9zvSvLoaBrwsk+W2rpZlo9aSjjl2/b50Vd6JXCP3N2XZ//zQsqyZ79xvSf36mpQuhMvp82UCF6tXG9J+6GzHZRU4iQw7y54fJlu/suucAzXkZSgINcJPf/pTdw4Pk8YFQuIBD5PMd806bOuelkl6flz727fc7Tn/jY717xo9PwAAAJBG1kTwY2pU8ONkTbp3/CEG3nAIs4z/mRuIUI35CYIfoz53bduHlOgn2OPXZQ9+9OthAKDSCNcRaUz7y+tghtOYbKuAS9hYTwh+HFuVqm24hksHP9QxdeieFUFPGx1ION8IlnWXf9WfOyHcd2vww1DHNd6LxxUJfkR7D4ykglXBetW6Ir9lPbdt2Tzu/e6KDhI5grwX2xeH3/No6DsxOvhRrKlzooYuLRzfUOe3I9UV/zsl2fJe6ZtMbb/Ka0HQ0LF6I/lY6vN19JLuaaLWq4eE7SE/TLR+325T1p7xg095qdRH9Q5JZoIZP/vZz9wJTR89ejQ0F4hhPjOBJLOMWXbWPT58k8z58cyX3pT//j//Tj78uYb17xpzfgAAACCNrIngx9ToOT+cxpyaKLNcHzTi/IZdzg12TDn4oZ6YW3t+xAIGaYIfukGazGsIqoZ37mJ0v+yN+OFhL4snKlLdjjca7dvmUoGE4Fjqz0bwt2MqwY+kiUR7/mtQ88G8EVoYsFE9bKw9P/Kyec9bp27MjxDf5nA/LQ13Jcwf6jcNvb+xfNs4738nlj/dOT82pVzMS942H01wPlUwzZbHFX2+/OtrQF2Heh/3kB8mWr+n+7L/PWf7H0T/lpaZANWkP/zDP/TWOewP/uAP3OCH/0rc/TDqbS++f3v+VfmPn/+6/MrHX7H+XeNtLwAAAEgjayL4MTWx4Ifzmf9K20Gww39i7L/5YcrBj8gcA/E5P3KSvxKdhyFN8CNc1luv04gftjFoCI4KFjyoyor3t0iAwQwTOGNeBev/zsCiGQYT9CwYEfywNcjVdpjJMu3bnJeNW4N1TCX4ETuPrp0tWVUBD3cej2JZ1s4VgiCRXq+e7yI+58fiaRVc0b97eGlov3yrr+41+BHLayP21/6dnmydVgEPd1uLUr5YloI/7Cs4n6MDC1ri+Upax7Tyw5htDI5BPI+mZHpxvP/++3L9+vVgO4zV1VX3lbb6s8997nNuAGS/en781Xffkl+Pvc427ls/eOSWs5fefGj9u88ER8z6bL8DAAAA2GRNBD+mZjj4EQwXMcNc7npPnoN5GKYd/HA8asvGc/4yxqIsnSjJxs3hRrt9XfYAQzBUwsxVcidch1Xqnh+h/oOmbMaCIOFcImrbRgzzCI6l+sx9Y4le3mJWwQ/da6YQ7Ev0e9H19qR+5kjwnUHAyby9pCU9NYQoMlwoxatr9z34oXtcFDZVMGv4ejGf1U56nyXlcU/q4MS08sOY4Me0mLk7vv/978tv//ZvB9vxkY98xO3hYZj/9z//rd/6Lbl375788pe/tK5rFnJX3rAGM4x/7njvl++75ez/+n7fuozv3//Z16zrBwAAAJJkTQQ/psbSmAuGJhyVwsnB0IXcuYY3nGHawY++NC8Oen5YG+kxaYIfes6P5Zf8ITUJYnN+6CBFcoMyqn9rbXgYi962haLUvElXDT2XSLDvelhIbO4Rm1kFP8LjvBIZBqGPqV6vGTZhgj+D3kLh8sPU3BOHylIfemWuXfo5P2J5LW3wQx2/lWsq+KPPjzXQljDnh3ceUwcnppUfJgh+mAl7gwlxMzATlv7jP/6j/N7v/V6wDeb1te122/3cMP+vX4v7u7/7u25QxMz9YVvntH3z4Q+swQzfR76wLX/xt2/Jf7j8uvXvPrMe2/oBAACAJFkTwY+psQQ/InMYDITzB6QPfoQNw5wULjels9OR1o26tNzJJcPfP3rWvIHDfxtM7O0kI3/DHvx4t+987g9RWFiScq0tXW+93XsNqV5YkfWggRh928vyxbq0H8bfyqIalA9rUjm7GbwJxXzW214P5i8Je4/o4Ifz+XNrUttuSjPyFpno216aF8KG9NK5mrMd3vF42JbG9YqsXAqPe2JjV/dkObkuTee4dm7Xpe5PzDom+KEb84Wrbfc89O87DXH1ylUd/AjOS2FdGve6I8+h3mZ/2wbLOvmitiGlM7XwHLrMHDDe+id+28segx+6V05hU9qm19NuR+rnwrfdRPLabbW8+7aXhve2oE0pnygG600fnJhSfhgZ/AgDkAuHV2VLBejSMMNXLl++HPy+ceXKlWBoi2H+f2NjI7LMJz7xiX0b+mJ85lZH/uUn/tIa1BjnVz/+ivt923oBAACAUbImgh9TYwt+RBtR0UlH0wc/TEMyeD1oIFzG7zUQ/bvn8Ips3A6fpKcKfjj622uSV8GLON1AND03hrczJ4XTpaBhGwY/VGM67tCKmmwz3LbcM3nL+p0GrXMcIw16/eYNG3XcExu7ZuJaFajwBQGLMcEP+zkzwZtVKXk9N3Tww37sPIfMHB6qwfioI7XnLROI+mLn8F3zhiHvHFp7sShTC34kHD8T2FgteUOCItup566JU3k9S3BiGvlhZPBD/y3+vXR+9KMfua+xNev5/d//fXf+Dz2pqfl/85n5m1nmxIkT8vbbb0fWsR9MAMMW3BiHwAcAAACyypoIfkyNPfgRaSxG5mbIEPxwdGplWX7Ka8AdOiL54ro0Tc+P3bbULhTkyIgAxeAVu6N+Izn44XrYlOqFouT933csHluR0sWatGPDLnq3NqX07KBhnntqWcrX29J/N3wDTtAw7Ldl62JJVvRbQA4vycqpDWlE9t3ftsGEsb07VSk/503oenhZSleb0TkxfI+60rxekWIw+au//jWp3Q2DQcmNXcf9Wvhb3hwc69uT9fwwuo11Kfr75/x28cLgePnzgQSBCGdbG1dKsmx5I0wolifcN6lsSOlEODHqIF+UZbMRC3AEvSp0Dxm7qQU/jG5D1ov+9i3KUrEyOPb+fCBDQZqetGrRc2byUOlKQ7reOc4WnHDsOT+MXn/n5aK7n4vPOtelertSFqYXx+c//3k3qPHzn/986O/vvfee/OAHP3B7gMT/tp/M0BUzB8i4SVB/7WxNPvSZNxjqAgAAgD3Jmgh+PBHC18XmTlYHQwv8vz3qS/uq35AbDqbg4Ghd9no8HKtIQw+ZcM5ht14Z7jWTSl8a57yg1fO1iSdIBSZl3tpiXlv7G2uvuYEOP+Bh/m0+560uAAAAmIasieDHk0BNMmptGAeTThL8OLjCXjHWISmqx0Wm4Efw/aXxb+wBAAAAgAMqayL48SR41AiGqyxdaESHf+y0ZPOk98Q/9vYVHCQdqa4MzqHpvRO+EtbRVxOEBq9KTsNMdDrIA0sXY/OiAAAAAMAcyZoIfjwhgiETbgP5iOSP5yNzcywcLkpNvWoVB0/v1VI4D4WZG8OcQz0XyqG8rG2H81IAAAAAwAdN1kTw44nRl0584ku3AV2U8tWGdPY4+SL2R/dWVSrFvJq41kywOphUtpXx1akAAAAA8KTImgh+AAAAAACAuZA1EfwAAAAAAABzIWsi+AEAAAAAAOZC1kTwAwAAAAAAzIWsieAHAAAAAACYC1kTwQ8AAAAAADAXsiaCHwAAAAAAYC5kTQQ/AAAAAADAXMiaCH4AAAAAAIC5kDUR/AAAAAAAAHMhayL4AQAAAAAA5kLWRPADAAAAAADMhayJ4AcAAAAAAJgLWdMHNvhBIpFIJBKJRCKRSCQS6YORCH6QSCQSiUQikUgkEolEeqITw14AAAAAAMBcyJoIfgAAAAAAgLmQNRH8AAAAAAAAcyFrIvgBAAAAAADmQtZE8AMAAAAAAMyFrIngBwAAAAAAmAtZE8EPAAAAAAAwF7Imgh8AAAAAAGAuZE0EPwAAAAAAwFzImgh+AAAAAACAuZA1EfwAAAAAAABzIWsi+AEAAAAAAOZC1kTwAwAAAAAAzIWsieAHAAAAAACYC1kTwQ8AAAAAADAXsiaCH/vk29/+tnzhC1+Qc+fOyUc/+lF54YUX5NOf/rR89atflbffftv6HQAAAAAAEMqaCH7M2DvvvCN//ud/LqVSSV5++WW5e/euvPXWW/K9731Ptre35fLly24w5I033rB+fy48rEnpeFm2dix/AwAAAABgSrImgh8zZAIfpnfHxsaG/OhHP/J+eTi1Wi352Mc+5vYCsa1neppSWViQhWPr0npk+3tXqoUFKVzvWv42wt0NWTq0ItX7lr8BAAAAADAlWRPBjxkyPT5M4GOS9ODBA7d3yJtvvmld13R4wQ/H0uWW5e8Zgx8AAAAAAOyDrIngx4yYOT5MMGNUj494ev311+XFF1+0rm86TPCjIBvXKnJ0YVk278X/TvADAAAAAHBwZU0EP2bETG5q5vhIk9577z13+IuZF8S2zr0zwY+crN3qS/1sThae3ZR2ZPhLQvDjYUPWi0uyaHqNHDoiy2er0urpv1elsFCQ6kP/s0GQpfqgK41LRVk6POhtsnisKOsNAisAAAAAgGyyJoIfM2Le6mKCGGmTGSbz2muvWde5d4NhL5Vt5/9361I+tCDLL7XV3y3BjwdVKRzKyfLFhnR2etJ72JLq6aXovCHW4MeCHH16WVavNgff2+lI83JBcqbHCXODAAAAAAAyyJoIfsyIeYOLeatL2mR6i3zxi1+0rnPvVPDD+Xe/Xh4EI4LhL/HgR18a53Ky8HxNesE6HLt1WXXWU3q1N/h3UvDjUnxekbZsHmdYDQAAAAAgm6yJ4MeMvPDCC+7rbNOmarUqX/7yl63r3Lto8OPdd3uyVcrJQqEqHbcXRzz40ZS1Q7ZgxWC53MXm4N8JwY9yve/925cwrAYAAAAAgAlkTQQ/ZsS84nZ7e9v7tcmT+d5f//VfW9e5d/Hgh2NnS0omwHGt4/x7OPhhljfzdVhdGB38iPyOi+AHAAAAACC7rIngx4x89atflcuXL3u/Nlna2dlx3xDT7c4qOGAPSvReLUnOnaC0Y+35Uap1pOfO2xGz662D4AcAAAAAYB9kTQQ/ZuTtt9925/1otVreL45PL730kvuWGNv6piMpKOEPf1mX9ed1cGIw50fubF36keVjCH4AAAAAAPZB1kTwY4beeOMN99W1Dx488H41OZmeImfPnnV7f9jWNR1JQQnHw5oUDg2Gs0SCE97bXvJnNqV5f9Djo3uvKbWrZane8r9L8AMAAAAAMHtZE8GPGTNBDTOU5fXXX5f33nvP+/UwmWCH6fFhAh/37t2zrmN6RgQ/HN2XzatoLcGJbkM2Ti3LES84snB4SVZObUhzx/s7wQ8AAAAAwD7Imgh+7IM333xTXnzxRbcXyMbGhvs6W/NWFzO5qQmMmKEus+3xAQAAAADA/MuaCH7so7t378prr70mX/ziF93X2Zq3usxuclMAAAAAAJ4sWRPBDwAAAAAAMBeyJoIfAAAAAABgLmRNBD8AAAAAAMBcyJoIfgAAAAAAgLmQNRH8AAAAAAAAcyFrIvgBAAAAAADmQtZE8AMAAAAAAMyFrIngBwAAAAAAmAtZE8EPAAAAAAAwF7Imgh8AAAAAAGAuZE0EPwAAAAAAwFzImgh+AAAAAACAuZA1EfwAAAAAAABzIWsi+AEAAAAAAOZC1vSBDX6QSCQSiUQikUgkEolE+mAkgh8kEolEIpFIJBKJRCKRnujEsBcAAAAAADAXsiaCHwAAAAAAYC5kTQQ/AAAAAADAXMiaCH4AAAAAAIC5kDUR/AAAAAAAAHMhayL4AQAAAAAA5kLWRPADAAAAAADMhayJ4AcAAAAAAJgLWRPBDwAAAAAAMBeyJoIfAAAAAABgLmRNBD8AAAAAAMBcyJoIfgAAAAAAgLmQNRH8AAAAAAAAcyFrIvgBAAAAAADmQtZE8AMAAAAAAMyFrIngBwAAAAAAmAtZE8GPffKd73xHqtWqfPKTn5SPfvSj8sILL8if/umfyte+9jXp9/vW7wAAAAAAgFDWRPBjH7zyyitSKpXk2rVr8u1vf1veeust+d73vidf//rX5dOf/rSUy2X51re+Zf0uAAAAAAAYyJoIfsyY6e1x/vx5N9iRlN544w03ODLzAMjDqhQWFqSybfkbAAAAAAAHXNZE8GOGvvGNb7jDW374wx96v5qcTADE9ACZ6RAYgh8AAAAAgDmWNRH8mKE/+ZM/cYe2TJrMEBgzB4htXVNB8AMAAAAAMMeyJoIfM9LpdNyhLD/96U+9XxyfTKDETIJqW99U2IIfu22pXSzJyrFFWXD+tnDoiCyfrUp7Vy0DAAAAAMABkDUR/JiRb37zm/Liiy96vzZZMvOCmGEytvVNhS340avL+oWqNO51pbfTk+7tqpSeXpCjl1rR7wIAAAAA8JhlTQQ/ZsTM92GGsaRJ5i0w5jW4tvVNxYTDXtov5WWhUJWu5W8AAAAAADwuWRPBjxkxr7Q9c+aM92uTJfOdT37yk9b1TcWEwY/u9QLBDwAAAADAgZM1EfyYEfPWFtOLw8z9MWm6du2a+2pc2/qmwjrspTWY8+N4Xo4cWhjM+2EQ/AAAAAAAHDBZE8GPGfrSl74kn/nMZ7xfHJ3MfB9mgtTvfOc71nVNRTz4sbMlpUMLsnSuJu2HPek/GnxOzw8AAAAAwEGUNRH8mKHd3V354z/+Y6nVat6v2tPf//3fy/nz5+WVV16xrmdq4sGP7YosLJSl3lfLOFqXjhL8AAAAAAAcONmSyP8HIk3AYVNXDzQAAAAASUVORK5CYII=;" vertex="1" parent="1">
                    <mxGeometry y="50.00000000000001" width="388.26" height="308.96" as="geometry"/>
                </mxCell>
            </root>
        </mxGraphModel>
    </diagram>
</mxfile>